<svg width="99" height="74" viewBox="0 0 99 74" fill="none" xmlns="http://www.w3.org/2000/svg">
<path d="M95.9126 50.6771C91.2961 55.2936 83.7885 55.2936 79.1682 50.6771C78.5229 50.0318 77.4762 50.0318 76.8269 50.6771C72.2104 55.2936 64.7027 55.2936 60.0824 50.6771C59.4371 50.0318 58.3905 50.0318 57.7412 50.6771C53.1247 55.2936 45.617 55.2936 40.9967 50.6771C40.3514 50.0318 39.3048 50.0318 38.6554 50.6771C34.0348 55.2936 26.527 55.2895 21.911 50.6771C21.2657 50.0318 20.2191 50.0318 19.5697 50.6771C14.9491 55.2936 7.44132 55.2895 2.82527 50.6771C2.17996 50.0318 1.13335 50.0318 0.483987 50.6771C-0.161329 51.3224 -0.161329 52.3732 0.483987 53.0184C6.0188 58.5532 14.797 58.9006 20.7368 54.0732C26.2799 58.5738 34.2842 58.5697 39.8226 54.0732C45.3657 58.5738 53.37 58.5697 58.9085 54.0732C64.4515 58.5738 72.4559 58.5697 77.9943 54.0732C80.7658 56.3235 84.1496 57.4487 87.5374 57.4487C91.4176 57.4487 95.2977 55.972 98.251 53.0184C98.8963 52.3731 98.8963 51.3265 98.251 50.6771C97.6057 50.0318 96.5591 50.0318 95.9098 50.6771L95.9126 50.6771Z" fill="black"/>
<path d="M95.9126 67.2276C91.2961 71.8441 83.7885 71.8441 79.1682 67.2276C78.5229 66.5823 77.4762 66.5823 76.8269 67.2276C72.2104 71.8441 64.7027 71.8441 60.0824 67.2276C59.4371 66.5823 58.3905 66.5823 57.7412 67.2276C53.1247 71.8441 45.617 71.8441 40.9967 67.2276C40.3514 66.5823 39.3048 66.5823 38.6554 67.2276C34.0348 71.8441 26.527 71.8441 21.911 67.2276C21.2657 66.5823 20.2191 66.5823 19.5697 67.2276C14.9491 71.8441 7.44132 71.8441 2.82527 67.2276C2.17996 66.5823 1.13335 66.5823 0.483987 67.2276C-0.161329 67.873 -0.161329 68.9237 0.483987 69.5689C6.0188 75.1037 14.797 75.4512 20.7368 70.6238C26.2799 75.1244 34.2842 75.1203 39.8226 70.6238C45.3657 75.1244 53.37 75.1203 58.9085 70.6238C64.4515 75.1244 72.4559 75.1203 77.9943 70.6238C80.7658 72.8741 84.1496 73.9992 87.5374 73.9992C91.4176 73.9992 95.2977 72.5225 98.251 69.5689C98.8963 68.9236 98.8963 67.877 98.251 67.2276C97.6057 66.5823 96.5591 66.5823 95.9098 67.2276L95.9126 67.2276Z" fill="black"/>
<path d="M66.5928 19.5369C66.5928 19.5204 66.5845 19.5121 66.5845 19.4955V8.56697C66.5845 6.27525 65.6455 4.05808 64.0116 2.49441C62.3569 0.885299 60.1604 0 57.8315 0C52.9958 0 49.062 3.8429 49.062 8.56686C49.062 9.48105 49.8024 10.2215 50.7166 10.2215C51.6308 10.2215 52.3712 9.48105 52.3712 8.56686C52.3712 5.66708 54.8201 3.30928 57.8315 3.30928C59.2959 3.30928 60.6734 3.86359 61.7158 4.87296C62.7086 5.82438 63.2754 7.17294 63.2754 8.56697V17.8826H40.3751V8.56697C40.3751 6.28362 39.432 4.06634 37.7897 2.49441C36.1351 0.885299 33.9386 0 31.6056 0C26.7781 0 22.8525 3.8429 22.8525 8.56686C22.8525 9.48105 23.593 10.2215 24.5072 10.2215C25.4214 10.2215 26.1618 9.48105 26.1618 8.56686C26.1618 5.66708 28.6024 3.30928 31.6056 3.30928C33.074 3.30928 34.4516 3.86359 35.4899 4.87296C36.4909 5.83265 37.0659 7.1812 37.0659 8.56697V46.5078C37.0659 47.422 37.8064 48.1624 38.7206 48.1624C39.6348 48.1624 40.3752 47.422 40.3752 46.5078V38.6565H63.2755V48.9359C63.2755 49.8501 64.0159 50.5905 64.9301 50.5905C65.8443 50.5905 66.5848 49.8501 66.5848 48.9359V37.0394C66.5848 37.0229 66.593 37.0146 66.593 36.998C66.593 36.9856 66.5848 36.9732 66.5848 36.9567V19.5705C66.5848 19.554 66.593 19.5457 66.593 19.5291L66.5928 19.5369ZM40.3748 35.3473V21.1921H63.2751V35.3473H40.3748Z" fill="black"/>
</svg>
