<svg width="87" height="87" viewBox="0 0 87 87" fill="none" xmlns="http://www.w3.org/2000/svg">
<path d="M85.967 84.9477H82.6371V52.8035C82.6371 52.2462 82.175 51.7841 81.6177 51.7841H81.0197C80.7207 50.8871 80.2042 50.0852 79.511 49.4871C78.5596 48.6716 77.3907 48.3183 76.2218 48.5085C75.8685 48.5629 75.5151 48.6716 75.1889 48.8212C74.1151 47.1902 72.321 46.3067 70.4998 46.5785C70.0784 46.6465 69.6707 46.7688 69.2765 46.9591C68.2843 45.7902 66.9388 45.0835 65.5252 44.9611V44.6621C65.5252 44.1049 65.0631 43.6427 64.5059 43.6427H63.6768C64.7233 42.1477 66.0417 40.8701 67.564 39.8779C68.0397 39.5653 68.1756 38.94 67.863 38.4643C67.5504 37.9886 66.9252 37.8527 66.4495 38.1653C64.6554 39.3342 63.1059 40.8701 61.8963 42.637C61.5701 40.8157 60.9177 39.0488 59.9527 37.4586C59.6536 36.9828 59.0284 36.8333 58.5527 37.1188C58.077 37.4178 57.9139 38.043 58.2129 38.5187C59.1643 40.0817 59.7488 41.8351 59.9663 43.6427H57.2343V34.3461C57.6965 34.4548 58.1586 34.5092 58.6479 34.5092C62.1137 34.5092 64.9408 31.6957 64.9408 28.2298C64.9408 25.2397 62.8477 22.7388 60.0342 22.1C60.1565 21.5971 60.2245 21.0806 60.2245 20.5642C60.2245 17.0983 57.3974 14.2712 53.9316 14.2712C50.4657 14.2712 47.6522 17.0983 47.6522 20.5642C47.6522 21.0806 47.7202 21.5971 47.8425 22.1C45.0426 22.7252 42.9359 25.2397 42.9359 28.2434C42.9359 31.7093 45.7494 34.5228 49.2153 34.5228C49.7046 34.5228 50.1803 34.4548 50.6424 34.3597V43.6563H46.6193C47.8561 41.1147 47.1222 37.9614 44.7708 36.3304C43.9689 35.7732 43.0447 35.447 42.0661 35.3654C41.2642 32.5792 38.7633 30.5268 35.7732 30.5268C32.783 30.5268 30.2821 32.5792 29.4802 35.3654C28.5152 35.447 27.5774 35.7732 26.7755 36.3304C24.4242 37.9614 23.6902 41.1011 24.927 43.6563H20.8767V34.3597C21.3389 34.4684 21.801 34.5228 22.2903 34.5228C25.7561 34.5228 28.5832 31.7093 28.5832 28.2434C28.5832 25.2533 26.4901 22.7524 23.6766 22.1136C23.7989 21.6107 23.8669 21.0942 23.8669 20.5778C23.8669 17.1119 21.0398 14.2848 17.574 14.2848C14.1081 14.2848 11.2946 17.1119 11.2946 20.5778C11.2946 21.0942 11.3626 21.6107 11.4849 22.1136C8.68505 22.7388 6.57835 25.2533 6.57835 28.257C6.57835 31.7229 9.39181 34.5364 12.8577 34.5364C13.347 34.5364 13.8227 34.4684 14.2848 34.3733V43.6699H11.6208C11.8519 41.903 12.4363 40.1905 13.3606 38.6682C13.6596 38.1925 13.4965 37.5537 13.0208 37.2683C12.5451 36.9828 11.9199 37.1324 11.6208 37.6081C10.6558 39.1983 9.98984 40.9516 9.67724 42.7865C8.46758 41.0196 6.93173 39.4837 5.12404 38.3148C4.64834 38.0022 4.02312 38.1381 3.71051 38.6138C3.39791 39.0895 3.53382 39.7148 4.00953 40.0274C5.49102 40.9924 6.79581 42.2292 7.82878 43.6699H7.01328C6.45602 43.6699 5.99391 44.132 5.99391 44.6893V84.9477H1.01937C0.462115 84.9477 0 85.3962 0 85.9671C0 86.5379 0.462115 86.9864 1.01937 86.9864H7.05405H28.8142H42.7593H64.533H81.6313H85.9806C86.5379 86.9864 87 86.5243 87 85.9671C87 85.4098 86.5243 84.9477 85.967 84.9477ZM68.162 48.8619C68.3115 49.1202 68.5697 49.2969 68.8688 49.3376C69.1542 49.392 69.4668 49.3105 69.6843 49.1202C70.0241 48.8347 70.4046 48.6716 70.8396 48.6037C72.09 48.3998 73.3268 49.2697 73.8841 50.6832C74.0064 50.9958 74.2782 51.2405 74.618 51.3084C74.9578 51.3764 75.2976 51.2812 75.5423 51.0366C75.8277 50.7512 76.1675 50.5745 76.548 50.5201C77.1189 50.425 77.7033 50.6152 78.1926 51.0366C78.4373 51.2405 78.6411 51.4987 78.8042 51.7841H65.5524V46.9999C66.5718 47.1494 67.5232 47.8018 68.162 48.8619ZM45.0155 28.2434C45.0155 25.8921 46.9183 23.9893 49.2968 23.9893C49.6502 23.9893 49.99 23.799 50.1667 23.5C50.357 23.1873 50.357 22.8068 50.1939 22.4942C49.8813 21.9233 49.7182 21.2573 49.7182 20.5642C49.7182 18.2264 51.621 16.31 53.9588 16.31C56.3101 16.31 58.2129 18.2128 58.2129 20.5642C58.2129 21.2437 58.0498 21.9097 57.7372 22.4942C57.5741 22.8068 57.5877 23.1873 57.778 23.5C57.9683 23.8126 58.3081 23.9893 58.6615 23.9893C61.0128 23.9893 62.9156 25.8921 62.9156 28.2434C62.9156 30.5812 61.0128 32.484 58.6615 32.484C57.0441 32.484 55.5897 31.587 54.8558 30.1327C54.6791 29.7929 54.3257 29.5754 53.9452 29.5754C53.619 29.6026 53.1976 29.7929 53.0345 30.1463C52.3142 31.6006 50.8599 32.4976 49.2425 32.4976C46.9183 32.484 45.0155 30.5812 45.0155 28.2434ZM52.7083 33.4626C53.1704 33.1636 53.5918 32.8238 53.9588 32.4025C54.3257 32.8238 54.7607 33.1636 55.2092 33.4626V43.6427H52.6947V33.4626H52.7083ZM42.3515 37.445C42.8 37.5401 43.235 37.7168 43.6155 37.9886C45.2737 39.1439 45.7086 41.4817 44.5941 43.167C44.499 43.2894 44.3495 43.4661 44.1592 43.6427H40.2176C41.5768 40.7749 42.27 38.7362 42.3515 37.445ZM35.7868 32.5656C38.2876 32.5656 40.3264 34.6587 40.3264 37.2275C40.3264 37.8391 40.0137 39.4701 37.9478 43.6563H36.5207C36.4527 41.4817 36.7789 39.2798 37.5129 37.2275C37.7032 36.6974 37.4313 36.113 36.9013 35.9227C36.3712 35.7324 35.7868 36.0042 35.5965 36.5343C34.781 38.8041 34.414 41.237 34.482 43.6427H33.6257C31.5598 39.4565 31.2471 37.8119 31.2471 37.2139C31.2471 34.6451 33.2859 32.5656 35.7868 32.5656ZM27.0066 43.1942C25.8785 41.4817 26.2998 39.1439 27.9716 37.9886C28.3521 37.7168 28.7871 37.5401 29.2356 37.445C29.3035 38.7362 30.0103 40.7613 31.3831 43.6427H27.4415C27.2376 43.4661 27.0881 43.303 27.0066 43.1942ZM8.64427 28.2434C8.64427 25.8921 10.5471 23.9893 12.9256 23.9893C13.279 23.9893 13.6188 23.799 13.7955 23.5C13.9858 23.1873 13.9858 22.8068 13.8227 22.4942C13.5101 21.9233 13.347 21.2573 13.347 20.5642C13.347 18.2264 15.2498 16.31 17.5876 16.31C19.9389 16.31 21.8417 18.2128 21.8417 20.5642C21.8417 21.2437 21.6786 21.9097 21.366 22.4942C21.2029 22.8068 21.2165 23.1873 21.4068 23.5C21.5971 23.8126 21.9369 23.9893 22.2903 23.9893C24.6416 23.9893 26.5444 25.8921 26.5444 28.2434C26.5444 30.5812 24.6416 32.484 22.2903 32.484C20.6729 32.484 19.2186 31.587 18.4846 30.1327C18.3079 29.7929 17.9545 29.5618 17.574 29.5618C17.1934 29.5618 16.84 29.7793 16.6633 30.1327C15.943 31.587 14.4887 32.484 12.8713 32.484C10.5471 32.484 8.64427 30.5812 8.64427 28.2434ZM16.3507 33.4626C16.8128 33.1636 17.2342 32.8238 17.6012 32.4025C17.9681 32.8238 18.4031 33.1636 18.8516 33.4626V43.6427H16.3371V33.4626H16.3507ZM8.07343 45.6951H15.3449H19.8981H33.0141H38.5866H51.7025H56.2557H63.5273V52.8171V84.9477H43.7786V66.8165C43.7786 66.2592 43.3165 65.7971 42.7593 65.7971H28.8142C28.257 65.7971 27.7949 66.2592 27.7949 66.8165V84.9477H8.07343V45.6951ZM29.8336 84.9477V67.8358H41.7399V84.9477H29.8336ZM65.5524 84.9477V53.8229H80.5983V60.2517H73.0686C72.5113 60.2517 72.0492 60.7138 72.0492 61.2711C72.0492 61.8283 72.5113 62.2905 73.0686 62.2905H80.5983V66.667H73.0686C72.5113 66.667 72.0492 67.1291 72.0492 67.6863C72.0492 68.2436 72.5113 68.7057 73.0686 68.7057H80.5983V73.0822H73.0686C72.5113 73.0822 72.0492 73.5443 72.0492 74.1016C72.0492 74.6588 72.5113 75.1209 73.0686 75.1209H80.5983V79.4975H73.0686C72.5113 79.4975 72.0492 79.9596 72.0492 80.5168C72.0492 81.0741 72.5113 81.5498 73.0822 81.5498H80.6119V84.9477H65.5524Z" fill="black"/>
<path d="M23.2284 51.6482H11.9881C11.4309 51.6482 10.9688 52.1103 10.9688 52.6676V61.04C10.9688 61.5973 11.4309 62.0594 11.9881 62.0594H23.2284C23.7857 62.0594 24.2478 61.5973 24.2478 61.04V52.6676C24.2478 52.0967 23.7857 51.6482 23.2284 51.6482ZM22.209 60.0206H13.0075V53.6869H22.209V60.0206Z" fill="black"/>
<path d="M30.16 62.0594H41.4003C41.9575 62.0594 42.4196 61.5973 42.4196 61.04V52.6676C42.4196 52.1103 41.9575 51.6482 41.4003 51.6482H30.16C29.6027 51.6482 29.1406 52.1103 29.1406 52.6676V61.04C29.1406 61.5973 29.6027 62.0594 30.16 62.0594ZM31.1794 53.6869H40.3809V60.0206H31.1794V53.6869Z" fill="black"/>
<path d="M48.3455 62.0594H59.5858C60.1431 62.0594 60.6052 61.5973 60.6052 61.04V52.6676C60.6052 52.1103 60.1431 51.6482 59.5858 51.6482H48.3455C47.7883 51.6482 47.3262 52.1103 47.3262 52.6676V61.04C47.3262 61.5973 47.7883 62.0594 48.3455 62.0594ZM49.3649 53.6869H58.5664V60.0206H49.3649V53.6869Z" fill="black"/>
<path d="M23.2284 64.7234H11.9881C11.4309 64.7234 10.9688 65.1855 10.9688 65.7428V74.1152C10.9688 74.6725 11.4309 75.1346 11.9881 75.1346H23.2284C23.7857 75.1346 24.2478 74.6725 24.2478 74.1152V65.7428C24.2478 65.1719 23.7857 64.7234 23.2284 64.7234ZM22.209 73.0958H13.0075V66.7621H22.209V73.0958Z" fill="black"/>
<path d="M48.3455 75.1346H59.5858C60.1431 75.1346 60.6052 74.6725 60.6052 74.1152V65.7428C60.6052 65.1855 60.1431 64.7234 59.5858 64.7234H48.3455C47.7883 64.7234 47.3262 65.1855 47.3262 65.7428V74.1152C47.3262 74.6725 47.7883 75.1346 48.3455 75.1346ZM49.3649 66.7621H58.5664V73.0958H49.3649V66.7621Z" fill="black"/>
<path d="M65.9059 8.12779C65.9875 8.14138 66.069 8.15497 66.1506 8.15497C66.5991 8.15497 67.0204 7.85596 67.1428 7.39384C67.5505 5.79003 68.9912 4.67552 70.6358 4.67552C71.2338 4.67552 71.7911 4.81144 72.294 5.06968C72.5386 5.192 72.8241 5.21918 73.0823 5.12404C73.3405 5.04249 73.558 4.83862 73.6803 4.59397C74.4143 3.04452 76.0181 2.03874 77.7442 2.03874C80.2451 2.03874 82.2702 4.07749 82.2702 6.57835V6.60553C82.2702 7.16279 82.7324 7.61131 83.2896 7.61131C83.8469 7.61131 84.309 7.1356 84.309 6.57835C84.309 2.94938 81.3596 0 77.7442 0C75.556 0 73.5172 1.10092 72.3212 2.88142C71.7775 2.71832 71.2203 2.63678 70.6358 2.63678C68.0534 2.63678 65.8108 4.3901 65.1584 6.87736C65.0225 7.43462 65.3623 7.97828 65.9059 8.12779Z" fill="black"/>
<path d="M7.62521 9.20148C8.18247 9.20148 8.64458 8.72577 8.64458 8.16852C8.64458 5.66766 10.6833 3.62891 13.1706 3.62891C14.8967 3.62891 16.5005 4.63469 17.2345 6.18414C17.3568 6.42879 17.5607 6.61907 17.8325 6.71421C18.0908 6.79576 18.3762 6.78217 18.6208 6.65984C19.1237 6.4016 19.681 6.26569 20.279 6.26569C21.9236 6.26569 23.3643 7.3802 23.7721 8.98401C23.8944 9.44613 24.3021 9.74514 24.7643 9.74514C24.8458 9.74514 24.9274 9.73155 25.0225 9.71796C25.5662 9.58204 25.8924 9.02479 25.7564 8.48112C25.1176 5.98026 22.8614 4.24054 20.279 4.24054C19.6946 4.24054 19.1373 4.32209 18.6072 4.48518C17.4112 2.70468 15.3724 1.60376 13.1842 1.60376C9.55522 1.60376 6.61943 4.55314 6.61943 8.18211V8.20929C6.60584 8.76655 7.06796 9.20148 7.62521 9.20148Z" fill="black"/>
<path d="M40.4615 15.0731C43.7643 15.0731 46.4554 12.382 46.4554 9.0792C46.4554 5.76284 43.7643 3.05811 40.4615 3.05811C37.1452 3.05811 34.4404 5.76284 34.4404 9.0792C34.454 12.382 37.1452 15.0731 40.4615 15.0731ZM40.4615 5.09685C42.6498 5.09685 44.4167 6.87735 44.4167 9.0792C44.4167 11.2674 42.6362 13.0344 40.4615 13.0344C38.2733 13.0344 36.4792 11.2539 36.4792 9.0792C36.4928 6.87735 38.2733 5.09685 40.4615 5.09685Z" fill="black"/>
</svg>
