<svg width="106" height="130" viewBox="0 0 106 130" fill="none" xmlns="http://www.w3.org/2000/svg">
<path d="M53.4287 31.1537C54.5542 31.7217 55.7588 31.9888 56.9407 31.9888C59.809 31.9888 62.5795 30.409 63.9534 27.678C65.8994 23.8186 64.3373 19.1017 60.479 17.1605C56.6207 15.2196 51.8966 16.7768 49.9541 20.6325C49.0131 22.502 48.855 24.6235 49.5099 26.6096C50.1687 28.5995 51.5617 30.2133 53.4287 31.1537ZM52.051 21.6896C53.0146 19.775 54.9532 18.6691 56.9671 18.6691C57.7952 18.6691 58.6384 18.8572 59.4289 19.2559C62.1316 20.6176 63.227 23.9241 61.8643 26.6248C60.5016 29.3256 57.1929 30.4202 54.4902 29.0585C53.1803 28.4002 52.2054 27.2717 51.7461 25.8762C51.2793 24.4844 51.3923 22.9987 52.051 21.6896ZM98.1475 86.1629C98.012 84.6808 97.3006 83.3417 96.1525 82.3825C95.0007 81.4271 93.5514 80.9757 92.0721 81.1111L80.7869 82.1493L88.0405 49.0696L91.6881 47.9185C91.9892 47.8245 92.2414 47.6101 92.3844 47.328C92.5275 47.0458 92.5501 46.7186 92.4484 46.4177L90.7056 41.3433C90.4986 40.7415 89.8511 40.4142 89.2414 40.6061L69.6564 46.7826C69.3553 46.8767 69.1031 47.0911 68.96 47.3732C68.817 47.6553 68.7944 47.9826 68.896 48.2835L70.6389 53.3578C70.8459 53.9597 71.4933 54.2869 72.1031 54.0951L79.1799 51.8645L72.3667 82.9239L59.8962 84.0712C59.9226 84.011 59.9565 83.9546 59.9828 83.8906C60.5098 82.6417 60.5173 81.265 60.0054 80.0162L53.3804 63.7961C53.1357 63.198 52.8421 62.7127 52.4281 62.2162L44.2447 52.4778L51.7429 42.9911L53.7794 45.3872C55.3603 47.2492 57.7883 47.9489 60.1183 47.2115L72.3854 43.3409C73.3867 43.0249 74.2072 42.3365 74.6966 41.3999C75.1821 40.4633 75.2762 39.3951 74.9601 38.3944C74.3051 36.3219 72.0879 35.167 70.0101 35.8215L58.962 39.3085L52.9995 32.2856C52.0924 30.954 50.8464 29.833 49.4085 29.1108L43.3255 26.0489C42.6818 25.7254 42.072 25.5411 41.3568 25.4545L33.9828 24.5706C31.5474 24.2772 29.2888 25.4207 28.0842 27.5573L21.7641 38.7402C21.2484 39.6542 21.1205 40.7188 21.4028 41.7344C21.6851 42.7501 22.3438 43.5964 23.2623 44.1118C24.177 44.6271 25.2423 44.755 26.2586 44.4729C27.275 44.1908 28.1219 43.5325 28.6377 42.6147L34.3253 32.5527L37.5174 32.9364L29.6916 46.7712C29.3415 47.3919 29.1081 48.0426 28.9914 48.7009L23.3038 66.7372L10.4903 73.6435C9.30455 74.283 8.43506 75.3512 8.04729 76.649C7.65958 77.9468 7.79886 79.3159 8.43877 80.5046C9.07868 81.6895 10.1477 82.5584 11.4464 82.9459C12.7451 83.3333 14.1152 83.1979 15.3047 82.5547L29.9365 74.6667C31.1599 74.0084 32.0219 73.068 32.5753 71.7966L37.2805 60.9709L44.3948 68.5731L50.6322 83.8408C50.7827 84.2132 50.9747 84.5555 51.1968 84.8677L16.2197 88.0838C13.1519 88.366 10.8858 91.0893 11.1681 94.155C11.3036 95.6371 12.0151 96.9762 13.1631 97.9354C14.1795 98.7818 15.4292 99.2295 16.7278 99.2295C16.901 99.2295 17.0704 99.2219 17.2473 99.2069L76.9812 93.7188V96.397C76.9812 97.9618 78.2535 99.2332 79.8194 99.2332H92.1395C93.7054 99.2332 94.9777 97.9618 94.9777 96.397V91.7288C97.0631 90.7358 98.3654 88.5315 98.1472 86.1617L98.1475 86.1629ZM54.5468 37.7326L57.6786 41.4189C57.9835 41.78 58.4766 41.9192 58.9246 41.7763L70.7137 38.0598C71.5532 37.7965 72.4528 38.2629 72.72 39.1017C72.848 39.5042 72.8066 39.9368 72.6109 40.3167C72.4114 40.6966 72.0801 40.975 71.6774 41.1029L59.4103 44.9735C57.9761 45.4249 56.5419 45.0111 55.567 43.8676L53.2256 41.1104C53.986 40.1324 54.4339 38.9777 54.5468 37.7326ZM30.4183 70.8682C30.0795 71.6506 29.5714 72.2035 28.8185 72.6098L14.1866 80.494C13.5505 80.8363 12.8164 80.9116 12.1164 80.7009C11.4162 80.494 10.8441 80.0276 10.5015 79.3919C10.159 78.7562 10.0837 78.0226 10.2945 77.323C10.5015 76.6234 10.9683 76.0516 11.6044 75.7093L24.8352 68.5774C25.1024 68.4345 25.3057 68.19 25.396 67.8966L30.0373 53.1777C30.1841 53.3808 30.3497 53.5764 30.5266 53.7682L35.5255 59.1097L30.4183 70.8682ZM52.7968 82.9582L46.4805 67.491C46.4278 67.3594 46.3488 67.239 46.2509 67.1337L37.789 58.0909C37.7777 58.0759 37.7627 58.0608 37.7476 58.0495L32.2444 52.1702C31.1452 50.9927 30.9457 49.3302 31.7362 47.9271L40.0325 33.242L41.2446 33.3887C41.8883 33.4676 42.4717 33.0087 42.5508 32.3655C42.6299 31.7223 42.1706 31.1393 41.5269 31.0602L39.562 30.8232C39.5432 30.8195 39.5281 30.8195 39.5093 30.8157L33.8179 30.1349C33.3473 30.0784 32.8881 30.3117 32.6548 30.7217L26.5831 41.4683C26.376 41.837 26.0335 42.1041 25.6194 42.2169C25.2054 42.3297 24.7763 42.2808 24.4074 42.074C24.0385 41.8671 23.7712 41.5248 23.6583 41.111C23.5416 40.6972 23.5943 40.2684 23.8013 39.8998L30.1214 28.7169C30.863 27.4041 32.2031 26.727 33.6974 26.9076L41.0714 27.7915C41.5119 27.8442 41.8694 27.9533 42.2647 28.1527L48.3477 31.2146C49.3678 31.7299 50.2749 32.5312 50.9562 33.4828C50.9939 33.5543 51.039 33.6183 51.0955 33.6822L51.0993 33.6897C51.5736 34.4007 51.9199 35.1793 52.0968 35.9768C52.3151 36.9698 52.3678 38.4256 51.3515 39.712L41.8243 51.7683C41.7603 51.8473 41.7076 51.9338 41.6662 52.0241C41.5909 52.1858 41.5571 52.3589 41.5608 52.5319C41.5646 52.7012 41.6022 52.8704 41.6813 53.0284C41.7265 53.1187 41.7829 53.2052 41.8507 53.2842L50.6326 63.7266C50.8923 64.035 51.0579 64.3096 51.2123 64.682L57.8373 80.9022C58.1121 81.5717 58.1045 82.309 57.8222 82.9824C57.5587 83.6068 57.0844 84.0996 56.4822 84.3854L54.6226 84.5547C53.8246 84.344 53.132 83.7798 52.797 82.9598L52.7968 82.9582ZM92.622 96.3944C92.622 96.6614 92.3962 96.8871 92.1289 96.8871H79.8088C79.5416 96.8871 79.3157 96.6614 79.3157 96.3944V93.5017L92.6226 92.2793L92.622 96.3944ZM93.4501 89.7965C93.2657 89.8492 93.0737 89.8831 92.8818 89.9019L17.0214 96.8721C16.1632 96.9511 15.3238 96.6878 14.6537 96.1311C13.9837 95.5744 13.5734 94.7995 13.4944 93.9419C13.3325 92.1626 14.6462 90.5828 16.4267 90.4172L54.4865 86.919C54.7613 86.9641 55.0399 86.9904 55.3222 86.9904C55.8981 86.9904 56.4853 86.8889 57.0537 86.682L73.4394 85.1774C73.9476 85.1285 74.3692 84.7598 74.4783 84.2595L81.9088 50.3825C81.9991 49.9725 81.8636 49.5474 81.555 49.2653C81.2463 48.9832 80.8097 48.8854 80.4107 49.0132L72.4907 51.511L71.5083 48.656L88.8576 43.1866L89.84 46.0416L86.6894 47.0346C86.2904 47.1625 85.9855 47.4936 85.8952 47.8998L78.1522 83.2059C78.0731 83.5708 78.171 83.9507 78.4194 84.2328C78.6679 84.5111 79.033 84.6579 79.4056 84.624L92.2865 83.4391C93.1448 83.3601 93.9842 83.6234 94.6542 84.1801C95.3242 84.7368 95.7345 85.5117 95.8135 86.3693C95.9528 87.9379 94.9596 89.3752 93.4501 89.7965Z" fill="black"/>
</svg>
