<svg width="94" height="77" viewBox="0 0 94 77" fill="none" xmlns="http://www.w3.org/2000/svg">
<path d="M92.8243 74.6365H73.2204V68.5113C79.1677 67.9093 83.6933 62.8905 83.6977 56.8979V30.6528C83.6977 24.1999 78.4789 18.9692 72.0421 18.9692C65.6053 18.9692 60.3865 24.2005 60.3865 30.6528V56.8979C60.3909 62.8905 64.9165 67.9094 70.8638 68.5113V74.6365H68.1926C67.7025 70.8082 64.4264 67.958 60.5763 68.0066H60.4085C59.4372 65.8335 57.2738 64.4483 54.8983 64.466C53.2427 64.4881 51.6664 65.1785 50.5317 66.3867C47.8472 65.807 45.0435 66.3646 42.7829 67.9314C40.5223 69.4937 39.0124 71.9279 38.6061 74.6498H36.1336V65.6433C41.0566 65.298 45.5027 62.5718 48.0594 58.3407C48.3066 57.7874 48.0991 57.1368 47.5781 56.8315C47.0571 56.5305 46.3904 56.6677 46.0328 57.159C43.8958 60.6908 40.1914 62.9701 36.0853 63.2843V52.8393L42.0767 47.2805C42.3637 47.0858 42.5536 46.7759 42.5933 46.4352C42.6286 46.0899 42.5183 45.7447 42.2798 45.4925C42.0458 45.2402 41.7103 45.103 41.3659 45.1207C41.0215 45.1384 40.6992 45.3066 40.4873 45.581L36.0853 49.6528V40.4338L42.0768 34.875C42.3329 34.6714 42.4874 34.3705 42.5139 34.0474C42.536 33.7199 42.4256 33.4012 42.2048 33.1578C41.9885 32.9188 41.675 32.7816 41.3527 32.7772C41.026 32.7728 40.7125 32.9055 40.4873 33.1401L36.0854 37.2119V28.0195L42.0769 22.4739C42.3109 22.2615 42.4477 21.965 42.461 21.6507C42.4742 21.3365 42.3638 21.0267 42.1475 20.7965C41.6883 20.3407 40.9466 20.3407 40.4873 20.7965L36.0854 24.8108V10.1745C36.0854 9.52394 35.56 8.99281 34.9065 8.99281C34.2575 8.99281 33.732 9.52391 33.732 10.1745V24.8108L29.3389 20.7965C28.8797 20.3407 28.138 20.3407 27.6787 20.7965C27.4668 21.0267 27.352 21.3365 27.3652 21.6507C27.3785 21.965 27.5154 22.2615 27.7494 22.4739L33.732 28.0195V37.2119L29.3389 33.1401C28.8576 32.7506 28.1512 32.8037 27.7317 33.264C27.3123 33.7199 27.3211 34.428 27.7494 34.8751L33.732 40.4206V49.6131L29.3389 45.5811C28.8577 45.1917 28.1512 45.2448 27.7318 45.7006C27.3123 46.1609 27.3211 46.8646 27.7494 47.3161L33.7321 52.8749V63.2844C27.1402 62.7577 22.0539 57.2476 22.0403 50.6219V15.0963C22.0447 8.06807 27.7316 2.368 34.7425 2.36346H35.0825C42.0983 2.36789 47.7803 8.06841 47.7893 15.0963V50.6219C47.7893 51.2725 48.3147 51.7992 48.9638 51.7992C49.6172 51.7992 50.1427 51.2725 50.1427 50.6219V15.0963C50.1294 6.7668 43.3962 0.0135961 35.0826 0H34.7427C26.4332 0.0132778 19.6962 6.76714 19.6826 15.0963V50.6219C19.7047 58.5485 25.8374 65.1119 33.7322 65.6433V74.6234L29.785 74.6278C29.2905 70.8171 26.0365 67.9713 22.2041 68.0067H22.0407C21.065 65.8336 18.9016 64.4483 16.5305 64.466C14.8615 64.4616 13.2677 65.1388 12.1154 66.3425C9.31609 65.7362 6.39326 66.3735 4.09729 68.0863C1.79692 69.7991 0.353194 72.4236 0.128039 75.2872C0.0441497 75.451 0 75.6324 0 75.8183C0 76.1325 0.123631 76.4335 0.344389 76.6548C0.565147 76.8761 0.865387 77 1.17446 77H92.8255C93.4745 77 94 76.4689 94 75.8183C94 75.1676 93.4746 74.6365 92.8255 74.6365L92.8243 74.6365ZM62.7437 56.9332L62.7393 30.653C62.7393 25.5013 66.9073 21.3278 72.0422 21.3278C77.1771 21.3278 81.3451 25.5013 81.3451 30.653V56.8981C81.3407 61.585 77.8571 65.5417 73.2211 66.1303V58.8145L77.6098 54.7516C78.0911 54.309 78.1176 53.5611 77.676 53.083C77.2345 52.6006 76.4883 52.5741 76.0115 53.0166L73.2343 55.588L73.2299 49.5468L77.6098 45.4972C78.0911 45.0546 78.1176 44.3066 77.676 43.8286C77.2345 43.3506 76.4883 43.3196 76.0114 43.7622L73.2343 46.3336L73.2299 40.2924L77.6098 36.2472C78.091 35.8046 78.1175 35.0566 77.676 34.5742C77.2345 34.0962 76.4883 34.0696 76.0114 34.5122L73.221 37.0836V26.8865C73.221 26.2359 72.6911 25.7047 72.0421 25.7047C71.393 25.7047 70.8632 26.2358 70.8632 26.8865V37.0836L68.0948 34.5122H68.0993C67.8653 34.2953 67.5606 34.1847 67.2471 34.198C66.9337 34.2112 66.6378 34.3484 66.4259 34.583C65.9888 35.061 66.0197 35.8045 66.4965 36.2472L70.8632 40.2968V46.338L68.0949 43.7666L68.0993 43.7622C67.8653 43.5498 67.5607 43.4347 67.2472 43.448C66.9337 43.4613 66.6379 43.6029 66.4259 43.833C65.9888 44.3154 66.0197 45.0589 66.4966 45.4972L70.8633 49.5556V55.588L68.0993 53.0167C67.8653 52.8042 67.5607 52.6892 67.2472 52.7024C66.9337 52.7157 66.6379 52.8529 66.426 53.0875C65.9889 53.5655 66.0198 54.309 66.4966 54.7516L70.8633 58.8101V66.1304C66.2273 65.5373 62.7525 61.5851 62.7393 56.8981L62.7437 56.9332ZM48.363 68.5239C49.1136 68.5239 49.8597 68.6302 50.5794 68.8426C51.0562 68.9887 51.5772 68.8116 51.873 68.4044C52.5618 67.4131 53.6921 66.8245 54.8975 66.8245C56.5576 66.82 58.0102 67.9398 58.4296 69.5507C58.5842 70.1526 59.1758 70.5377 59.7851 70.4226C62.549 69.9933 65.154 71.8389 65.6705 74.5918H40.9363C41.6207 71.0334 44.7514 68.4753 48.363 68.5239ZM9.99506 68.5239C10.7412 68.5239 11.4874 68.6302 12.207 68.8426C12.6883 68.9887 13.2093 68.8116 13.5007 68.4044C14.1938 67.4175 15.3242 66.8289 16.5295 66.8245C18.1897 66.82 19.6422 67.9398 20.0617 69.5507C20.2118 70.1526 20.8034 70.5377 21.4127 70.4226C24.1987 69.9579 26.839 71.8124 27.36 74.5918H2.56359C3.25237 71.0334 6.37902 68.4798 9.99506 68.5239Z" fill="black"/>
</svg>
