<svg width="76" height="75" viewBox="0 0 76 75" fill="none" xmlns="http://www.w3.org/2000/svg">
<path d="M73.5934 72.5831H70.0306C67.9664 72.5858 65.9731 71.8267 64.4296 70.4501L57.9292 64.653V47.1242C61.0626 46.8837 64.0512 45.7013 66.5059 43.731C68.9607 41.7606 70.7678 39.0936 71.6919 36.0772C72.6161 33.0609 72.6145 29.835 71.6873 26.8195C70.7601 23.8041 68.9503 21.139 66.4936 19.1711C67.7915 17.3654 68.5678 15.2347 68.7367 13.0141C68.9056 10.7935 68.4607 8.56919 67.4509 6.58641C66.4411 4.60362 64.9057 2.93938 63.014 1.77719C61.1223 0.615 58.9478 0 56.7302 0C54.5126 0 52.3381 0.615 50.4464 1.77719C48.5547 2.93938 47.0193 4.60362 46.0096 6.58641C44.9998 8.56919 44.5548 10.7935 44.7237 13.0141C44.8927 15.2347 45.6689 17.3654 46.9669 19.1711C44.5101 21.139 42.7004 23.8041 41.7732 26.8195C40.846 29.835 40.8444 33.0609 41.7685 36.0772C42.6927 39.0936 44.4998 41.7606 46.9545 43.731C49.4093 45.7013 52.3979 46.8837 55.5312 47.1242V62.5028L48.2344 55.9833C46.8824 54.778 45.2511 53.9323 43.4897 53.5234V44.7676C43.4897 43.1708 42.8581 41.6394 41.7338 40.5103C40.6095 39.3812 39.0847 38.7469 37.4947 38.7469H35.0453V21.7858H38.7879L21.1711 0.0167159H17.6169L0 21.7858H3.74262V72.5831H1.32747V75H76V72.5831H73.5934ZM32.6387 72.5831H6.1492V55.6478H32.6387V72.5831ZM6.1492 53.2309V36.2956H8.55578V53.2309H6.1492ZM10.9624 53.2309V36.2956H13.3689V53.2309H10.9624ZM15.7841 53.2309V36.2956H18.1907V53.2309H15.7841ZM20.5972 53.2309V36.2956H23.0038V53.2309H20.5972ZM25.419 53.2309V36.2956H27.8256V53.2309H25.419ZM32.6387 53.2309H30.2321V36.2956H32.6387V53.2309ZM32.6387 33.8787H6.1492V21.7858H32.6387V33.8787ZM5.06153 19.3689L18.7645 2.43359H20.0149L33.7178 19.3689H5.06153ZM35.0367 41.138H37.4433C38.4011 41.1402 39.3191 41.5234 39.9964 42.2036C40.6737 42.8838 41.0552 43.8056 41.0575 44.7676H35.0624L35.0367 41.138ZM35.0367 47.1587H41.0318V53.1793H35.0367V47.1587ZM55.5055 72.5573H35.0539V55.6478H41.0489C43.1137 55.6507 45.1061 56.4125 46.65 57.7895L55.5483 65.7368V72.6175L55.5055 72.5573ZM62.3056 25.467L56.7302 27.7032L51.1548 25.467L50.2984 27.7119L55.5655 29.8277V44.7074C52.8394 44.4557 50.2579 43.362 48.1758 41.5769C46.0938 39.7918 44.6136 37.4027 43.9385 34.7383C43.2635 32.0739 43.427 29.2649 44.4063 26.6975C45.3857 24.1302 47.1329 21.9305 49.4077 20.401L50.5639 19.6269L49.5876 18.5862C48.336 17.1978 47.5125 15.4745 47.217 13.6253C46.9216 11.7761 47.1668 9.88052 47.923 8.16856C48.6792 6.4566 49.9139 5.00183 51.4772 3.98074C53.0406 2.95965 54.8654 2.41614 56.7302 2.41614C58.5951 2.41614 60.4199 2.95965 61.9832 3.98074C63.5465 5.00183 64.7812 6.4566 65.5374 8.16856C66.2936 9.88052 66.5389 11.7761 66.2434 13.6253C65.948 15.4745 65.1245 17.1978 63.8729 18.5862L62.9394 19.6269L64.0956 20.401C66.3707 21.9311 68.1179 24.1314 69.0969 26.6995C70.0759 29.2676 70.2386 32.0772 69.5626 34.7419C68.8866 37.4066 67.4051 39.7956 65.3218 41.5801C63.2386 43.3647 60.656 44.4572 57.9292 44.7074V29.8621L63.1963 27.7463L62.3056 25.467ZM57.9292 72.5831V67.887L62.8366 72.2563L63.2391 72.5831H57.9292Z" fill="black"/>
</svg>
