<svg width="42" height="42" viewBox="0 0 42 42" fill="none" xmlns="http://www.w3.org/2000/svg">
<g clip-path="url(#clip0_2009_5020)">
<path d="M16.4979 25.5021C16.0888 25.093 15.4238 25.093 15.0147 25.5021L8.4124 32.1044V26.2448C8.4124 25.6658 7.94246 25.1958 7.36343 25.1958C6.78439 25.1958 6.31445 25.6658 6.31445 26.2448V34.6366C6.31445 34.773 6.34173 34.9094 6.39627 35.0373C6.50117 35.2933 6.70677 35.4989 6.96482 35.6059C7.0907 35.6562 7.22706 35.6856 7.36343 35.6856H15.7552C16.3343 35.6856 16.8042 35.2157 16.8042 34.6366C16.8042 34.0576 16.3343 33.5876 15.7552 33.5876H9.89566L16.4958 26.9875C16.907 26.5763 16.907 25.9133 16.4979 25.5021Z" fill="#2D2D2D"/>
<path d="M35.0373 6.39418C34.9093 6.34382 34.7729 6.31445 34.6366 6.31445H26.2448C25.6657 6.31445 25.1958 6.78439 25.1958 7.36343C25.1958 7.94246 25.6657 8.4124 26.2448 8.4124H32.1044L25.5042 15.0126C25.0951 15.4217 25.0951 16.0867 25.5042 16.4958C25.7077 16.7014 25.9762 16.8042 26.2448 16.8042C26.5133 16.8042 26.7819 16.7014 26.9875 16.4979L33.5876 9.89566V15.7552C33.5876 16.3343 34.0575 16.8042 34.6366 16.8042C35.2156 16.8042 35.6856 16.3343 35.6856 15.7552V7.36343C35.6856 7.22706 35.6583 7.0907 35.6037 6.96272C35.4988 6.70677 35.2932 6.50117 35.0373 6.39418Z" fill="#2D2D2D"/>
<path d="M36.7347 0.0205078H5.26539C2.37441 0.0205078 0.0205078 2.37231 0.0205078 5.26539V36.7347C0.0205078 39.6277 2.37441 41.9795 5.26539 41.9795H36.7347C39.6256 41.9795 41.9795 39.6277 41.9795 36.7347V5.26539C41.9795 2.37231 39.6256 0.0205078 36.7347 0.0205078ZM39.8816 36.7347C39.8816 38.4697 38.4697 39.8816 36.7347 39.8816H5.26539C3.53038 39.8816 2.11846 38.4697 2.11846 36.7347V5.26539C2.11846 3.53038 3.53038 2.11846 5.26539 2.11846H36.7347C38.4697 2.11846 39.8816 3.53038 39.8816 5.26539V36.7347Z" fill="#2D2D2D"/>
</g>
<defs>
<clipPath id="clip0_2009_5020">
<rect width="42" height="42" fill="white"/>
</clipPath>
</defs>
</svg>
