<svg width="14" height="14" viewBox="0 0 14 14" fill="none" xmlns="http://www.w3.org/2000/svg">
<path d="M13.7708 7.67992C13.8111 7.63958 13.8312 7.59938 13.8513 7.57914C13.8714 7.55904 13.9117 7.4986 13.9318 7.43802C13.9722 7.33724 13.9923 7.23646 13.9923 7.13582C13.9923 7.03504 13.9722 6.93426 13.9318 6.83362C13.9117 6.77318 13.8714 6.71274 13.8513 6.6925C13.8312 6.6724 13.811 6.63206 13.7708 6.59172L7.92718 0.748138C7.78606 0.607017 7.58464 0.526479 7.38309 0.526479C7.18152 0.526479 6.98011 0.607017 6.83899 0.748138C6.55689 1.03024 6.55689 1.55408 6.83899 1.83618L11.3527 6.37L0.894653 6.37C0.471425 6.37 0.128906 6.71254 0.128906 7.13575C0.128906 7.55896 0.471443 7.90149 0.894653 7.90149L11.3527 7.90149L6.81884 12.4353C6.51664 12.7375 6.51664 13.2212 6.81884 13.5234C7.12104 13.8255 7.6047 13.8255 7.90688 13.5234L13.7708 7.67992Z" fill="white"/>
</svg>
