<svg width="25" height="25" viewBox="0 0 25 25" fill="none" xmlns="http://www.w3.org/2000/svg">
<g clip-path="url(#clip0_6011_361)">
<path d="M23.7542 17.0833V15.8333H24.1709C24.6311 15.8333 25.0042 15.4602 25.0042 15V14.5833C25.0042 13.6629 24.258 12.9167 23.3375 12.9167H20.6334C20.0961 11.8928 19.0355 11.251 17.8792 11.25H13.2959C12.4126 11.2058 11.5517 11.5361 10.9246 12.1596C10.8571 12.1088 10.79 12.0571 10.7275 12.0025C9.47602 10.9525 7.88762 10.3894 6.25421 10.4167H4.58754V2.91668C4.58754 2.68656 4.77409 2.50001 5.00421 2.50001H7.22921C7.34107 2.49976 7.44826 2.54486 7.52629 2.62501L8.11837 3.2171C7.72168 3.7269 7.50564 4.35406 7.50421 5.00001C7.50421 5.46025 7.8773 5.83335 8.33754 5.83335H12.5042C12.9301 5.82846 13.2866 5.50876 13.3375 5.08585C13.3599 3.59708 12.2746 2.32265 10.8013 2.10751C10.7084 2.09585 10.6155 2.09001 10.5225 2.0871L9.29587 0.855432C8.74903 0.305494 8.00475 -0.00257329 7.22921 1.61935e-05H5.00421C3.39414 0.00185313 2.08938 1.30661 2.08754 2.91668V10.4167H1.67088C0.750403 10.4167 0.00421143 11.1629 0.00421143 12.0833V12.5C0.00421143 12.9602 0.377307 13.3333 0.837544 13.3333H1.25421V17.0833C1.25607 18.9293 2.19841 20.647 3.75421 21.6404V22.5H3.33754C2.64719 22.5 2.08754 23.0596 2.08754 23.75V24.1667H0.420878C0.190759 24.1667 0.00421143 24.3532 0.00421143 24.5833C0.00421143 24.8135 0.190759 25 0.420878 25H24.5875C24.8176 25 25.0042 24.8135 25.0042 24.5833C25.0042 24.3532 24.8176 24.1667 24.5875 24.1667H22.9209V23.75C22.9209 23.0596 22.3612 22.5 21.6709 22.5H21.2542V21.6404C22.81 20.647 23.7523 18.9293 23.7542 17.0833ZM24.1709 14.5833V15H21.0042V14.375C21.0041 14.1651 20.9828 13.9556 20.9404 13.75H23.3375C23.7978 13.75 24.1709 14.1231 24.1709 14.5833ZM19.9946 13.4929C20.1111 13.7724 20.171 14.0722 20.1709 14.375V19.1667C20.1709 19.3968 19.9843 19.5833 19.7542 19.5833H16.6709C16.4407 19.5833 16.2542 19.3968 16.2542 19.1667V14.375C16.2547 13.5046 15.8911 12.6736 15.2513 12.0833H17.8792C18.8042 12.0832 19.6386 12.6392 19.9946 13.4929ZM14.5875 14.375C14.5889 14.1828 14.5511 13.9924 14.4763 13.8154C14.2522 13.2724 13.7233 12.9178 13.1359 12.9167C12.6342 12.9106 12.139 12.8026 11.6805 12.5992C12.3661 12.0397 13.3126 11.9251 14.1121 12.3046C14.9115 12.6841 15.4209 13.4901 15.4209 14.375V19.1667C15.4222 19.3089 15.4482 19.4499 15.4975 19.5833H15.0042C14.7741 19.5833 14.5875 19.3968 14.5875 19.1667V14.375ZM12.5042 5.00001H8.33754C8.33754 3.84942 9.27028 2.91668 10.4209 2.91668C11.5715 2.91668 12.5042 3.84942 12.5042 5.00001ZM2.92088 2.91668C2.92225 1.76666 3.85419 0.834727 5.00421 0.833349H7.22921C7.78299 0.831694 8.31441 1.05165 8.70504 1.44418L9.49671 2.23793C9.21813 2.33048 8.95515 2.46464 8.71671 2.63585L8.11546 2.0346C7.88109 1.79843 7.56193 1.66593 7.22921 1.66668H5.00421C4.31385 1.66668 3.75421 2.22633 3.75421 2.91668V10.4167H2.92088V2.91668ZM0.837544 12.0833C0.837544 11.6231 1.21064 11.25 1.67088 11.25H6.25421C7.68629 11.2228 9.08015 11.7129 10.18 12.6304C10.9569 13.3025 11.9365 13.695 12.9625 13.7454C13.1674 13.7272 13.372 13.7826 13.5396 13.9017C13.6761 14.0211 13.7543 14.1937 13.7542 14.375V15H13.3375C11.9052 15.0259 10.5113 14.5356 9.41046 13.6188C8.57969 12.8977 7.51674 12.5005 6.41671 12.5H0.837544V12.0833ZM2.08754 17.0833V13.3333H6.41671C7.31574 13.3338 8.18451 13.6582 8.86379 14.2471C10.1157 15.2967 11.704 15.8599 13.3375 15.8333H13.7542V19.1667C13.7542 19.857 14.3138 20.4167 15.0042 20.4167H19.7542C20.4446 20.4167 21.0042 19.857 21.0042 19.1667V15.8333H22.9209V17.0833C22.9179 19.6134 20.8676 21.6637 18.3375 21.6667H6.67087C4.14081 21.6637 2.09053 19.6134 2.08754 17.0833ZM7.58004 22.5H17.4284C17.9425 22.9079 18.2628 23.5122 18.3117 24.1667H6.69629C6.74557 23.5122 7.06593 22.908 7.58004 22.5ZM2.92088 24.1667V23.75C2.92088 23.5199 3.10742 23.3333 3.33754 23.3333H4.17088C4.40099 23.3333 4.58754 23.1468 4.58754 22.9167V22.0833C5.17947 22.3288 5.8105 22.4665 6.45087 22.49C6.10606 22.9854 5.90136 23.5646 5.85837 24.1667H2.92088ZM20.8375 23.3333H21.6709C21.901 23.3333 22.0875 23.5199 22.0875 23.75V24.1667H19.1521C19.1081 23.5641 18.9028 22.9845 18.5575 22.4888C19.1978 22.4657 19.8289 22.3284 20.4209 22.0833V22.9167C20.4209 23.1468 20.6074 23.3333 20.8375 23.3333Z" fill="#2D2D2D"/>
<path d="M7.08756 20.4166C7.08756 20.1865 6.90101 20 6.6709 20C5.06083 19.9981 3.75607 18.6934 3.75423 17.0833C3.75423 16.8532 3.56768 16.6666 3.33756 16.6666C3.10745 16.6666 2.9209 16.8532 2.9209 17.0833C2.92319 19.1534 4.60078 20.831 6.6709 20.8333C6.90101 20.8333 7.08756 20.6467 7.08756 20.4166Z" fill="#2D2D2D"/>
<path d="M10.0042 7.08329V9.16662C10.0042 9.39674 10.1908 9.58329 10.4209 9.58329C10.651 9.58329 10.8375 9.39674 10.8375 9.16662V7.08329C10.8375 6.85317 10.651 6.66663 10.4209 6.66663C10.1908 6.66663 10.0042 6.85317 10.0042 7.08329Z" fill="#2D2D2D"/>
<path d="M8.36711 6.92833L7.53378 9.01167C7.44817 9.22545 7.55208 9.46815 7.76586 9.55375C7.97964 9.63935 8.22234 9.53545 8.30794 9.32167L9.14127 7.23833C9.22688 7.02455 9.12297 6.78185 8.90919 6.69625C8.69541 6.61065 8.45271 6.71455 8.36711 6.92833Z" fill="#2D2D2D"/>
<path d="M12.4746 6.92833C12.389 6.71455 12.1463 6.61065 11.9325 6.69625C11.7188 6.78185 11.6149 7.02455 11.7005 7.23833L12.5338 9.32167C12.5892 9.45996 12.7141 9.5582 12.8616 9.57939C13.009 9.60058 13.1566 9.54149 13.2487 9.42439C13.3407 9.30729 13.3633 9.14996 13.308 9.01167L12.4746 6.92833Z" fill="#2D2D2D"/>
</g>
<defs>
<clipPath id="clip0_6011_361">
<rect width="25" height="25" fill="white" transform="translate(0.00421143)"/>
</clipPath>
</defs>
</svg>
