<svg width="42" height="42" viewBox="0 0 42 42" fill="none" xmlns="http://www.w3.org/2000/svg">
<g clip-path="url(#clip0_2009_5008)">
<path d="M39.9 28.7V26.6H40.6C41.3732 26.6 42 25.9732 42 25.2V24.5C42 22.9536 40.7464 21.7 39.2 21.7H34.657C33.7543 19.9798 31.9726 18.9017 30.03 18.9H22.33C20.8462 18.8258 19.3998 19.3806 18.3463 20.4281C18.2329 20.3427 18.1202 20.2559 18.0152 20.1642C15.9126 18.4002 13.2441 17.4542 10.5 17.5H7.7V4.90002C7.7 4.51343 8.0134 4.20002 8.4 4.20002H12.138C12.3259 4.1996 12.506 4.27537 12.6371 4.41002L13.6318 5.40472C12.9654 6.26118 12.6024 7.31482 12.6 8.40002C12.6 9.17322 13.2268 9.80002 14 9.80002H21C21.7156 9.79182 22.3144 9.25472 22.4 8.54422C22.4375 6.04309 20.6143 3.90206 18.1391 3.54063C17.983 3.52103 17.8269 3.51122 17.6708 3.50633L15.61 1.43713C14.6913 0.51323 13.4409 -0.00432313 12.138 2.72051e-05H8.4C5.69508 0.00311325 3.50309 2.19511 3.5 4.90002V17.5H2.8C1.2536 17.5 0 18.7536 0 20.3V21C0 21.7732 0.626801 22.4 1.4 22.4H2.1V28.7C2.10312 31.8011 3.68626 34.6869 6.3 36.3559V37.8H5.6C4.4402 37.8 3.5 38.7402 3.5 39.9V40.6H0.7C0.313401 40.6 0 40.9134 0 41.3C0 41.6866 0.313401 42 0.7 42H41.3C41.6866 42 42 41.6866 42 41.3C42 40.9134 41.6866 40.6 41.3 40.6H38.5V39.9C38.5 38.7402 37.5598 37.8 36.4 37.8H35.7V36.3559C38.3137 34.6869 39.8969 31.8011 39.9 28.7ZM40.6 24.5V25.2H35.28V24.15C35.2799 23.7973 35.244 23.4455 35.1729 23.1H39.2C39.9732 23.1 40.6 23.7268 40.6 24.5ZM33.5839 22.6681C33.7795 23.1377 33.8802 23.6413 33.88 24.15V32.2C33.88 32.5866 33.5666 32.9 33.18 32.9H28C27.6134 32.9 27.3 32.5866 27.3 32.2V24.15C27.3009 22.6877 26.6899 21.2916 25.6151 20.3H30.03C31.584 20.2998 32.9858 21.2338 33.5839 22.6681ZM24.5 24.15C24.5024 23.8272 24.4388 23.5073 24.3131 23.2099C23.9367 22.2977 23.048 21.7018 22.0612 21.7C21.2184 21.6899 20.3865 21.5084 19.6161 21.1666C20.768 20.2267 22.3582 20.0341 23.7012 20.6717C25.0442 21.3094 25.9001 22.6633 25.9 24.15V32.2C25.9023 32.439 25.9459 32.6758 26.0288 32.9H25.2C24.8134 32.9 24.5 32.5866 24.5 32.2V24.15ZM21 8.40002H14C14 6.46703 15.567 4.90002 17.5 4.90002C19.433 4.90002 21 6.46703 21 8.40002ZM4.9 4.90002C4.90231 2.96799 6.46796 1.40234 8.4 1.40003H12.138C13.0683 1.39725 13.9611 1.76677 14.6174 2.42623L15.9474 3.75972C15.4794 3.91521 15.0376 4.14059 14.637 4.42823L13.6269 3.41813C13.2332 3.02136 12.697 2.79876 12.138 2.80003H8.4C7.2402 2.80003 6.3 3.74023 6.3 4.90002V17.5H4.9V4.90002ZM1.4 20.3C1.4 19.5268 2.0268 18.9 2.8 18.9H10.5C12.9059 18.8543 15.2476 19.6777 17.0954 21.2191C18.4006 22.3482 20.0463 23.0076 21.77 23.0923C22.1141 23.0617 22.4578 23.1548 22.7395 23.3548C22.9688 23.5554 23.1002 23.8453 23.1 24.15V25.2H22.4C19.9936 25.2435 17.6519 24.4198 15.8025 22.8795C14.4068 21.6682 12.6211 21.0008 10.773 21H1.4V20.3ZM3.5 28.7V22.4H10.773C12.2834 22.4007 13.7429 22.9457 14.8841 23.9351C16.9873 25.6985 19.6557 26.6446 22.4 26.6H23.1V32.2C23.1 33.3598 24.0402 34.3 25.2 34.3H33.18C34.3398 34.3 35.28 33.3598 35.28 32.2V26.6H38.5V28.7C38.495 32.9505 35.0505 36.395 30.8 36.4H11.2C6.94949 36.395 3.50501 32.9505 3.5 28.7ZM12.7274 37.8H29.2726C30.1364 38.4853 30.6744 39.5005 30.7566 40.6H11.2427C11.3255 39.5005 11.8637 38.4855 12.7274 37.8ZM4.9 40.6V39.9C4.9 39.5134 5.2134 39.2 5.6 39.2H7C7.3866 39.2 7.7 38.8866 7.7 38.5V37.1C8.69443 37.5124 9.75457 37.7438 10.8304 37.7832C10.2511 38.6154 9.90722 39.5886 9.835 40.6H4.9ZM35 39.2H36.4C36.7866 39.2 37.1 39.5134 37.1 39.9V40.6H32.1685C32.0946 39.5877 31.7496 38.614 31.1696 37.7811C32.2453 37.7423 33.3054 37.5117 34.3 37.1V38.5C34.3 38.8866 34.6134 39.2 35 39.2Z" fill="#2D2D2D"/>
<path d="M11.8999 34.3C11.8999 33.9134 11.5865 33.6 11.1999 33.6C8.49499 33.5969 6.30299 31.4049 6.2999 28.7C6.2999 28.3134 5.9865 28 5.5999 28C5.2133 28 4.8999 28.3134 4.8999 28.7C4.90376 32.1778 7.72211 34.9961 11.1999 35C11.5865 35 11.8999 34.6866 11.8999 34.3Z" fill="#2D2D2D"/>
<path d="M16.8003 11.9V15.3999C16.8003 15.7865 17.1137 16.0999 17.5003 16.0999C17.8869 16.0999 18.2003 15.7865 18.2003 15.3999V11.9C18.2003 11.5134 17.8869 11.2 17.5003 11.2C17.1137 11.2 16.8003 11.5134 16.8003 11.9Z" fill="#2D2D2D"/>
<path d="M14.0495 11.6395L12.6495 15.1395C12.5057 15.4987 12.6803 15.9064 13.0394 16.0502C13.3986 16.194 13.8063 16.0195 13.9501 15.6603L15.3501 12.1603C15.4939 11.8012 15.3194 11.3934 14.9602 11.2496C14.6011 11.1058 14.1933 11.2804 14.0495 11.6395Z" fill="#2D2D2D"/>
<path d="M20.9501 11.6395C20.8063 11.2804 20.3986 11.1058 20.0394 11.2496C19.6803 11.3934 19.5057 11.8012 19.6495 12.1603L21.0495 15.6603C21.1425 15.8926 21.3525 16.0577 21.6002 16.0933C21.8479 16.1289 22.0958 16.0296 22.2505 15.8329C22.4052 15.6361 22.4431 15.3718 22.3501 15.1395L20.9501 11.6395Z" fill="#2D2D2D"/>
</g>
<defs>
<clipPath id="clip0_2009_5008">
<rect width="42" height="42" fill="white"/>
</clipPath>
</defs>
</svg>
