<svg width="27" height="25" viewBox="0 0 27 25" fill="none" xmlns="http://www.w3.org/2000/svg">
<g clip-path="url(#clip0_6011_353)">
<path d="M25.2814 12.2622V3.77454C25.2814 1.70998 23.6018 0.0303955 21.5373 0.0303955H5.35928C3.29473 0.0303955 1.61514 1.71004 1.61514 3.77454V12.3717C0.615137 13.4172 0 14.8337 0 16.3912V22.827C0 24.0083 0.961129 24.9695 2.14256 24.9695C3.32395 24.9695 4.28507 24.0083 4.28507 22.827V22.1623H22.7192V22.827C22.7192 24.0083 23.6803 24.9695 24.8617 24.9695C26.0431 24.9695 27.0042 24.0084 27.0042 22.827V16.3912C27.0042 14.7786 26.3447 13.3172 25.2814 12.2622ZM5.35928 1.08525H21.5373C23.0202 1.08525 24.2266 2.29168 24.2266 3.77454V11.4321C23.9035 11.2332 23.5598 11.0649 23.1992 10.9315V9.1776C23.1992 7.62275 21.9342 6.35777 20.3794 6.35777H15.7946C14.8507 6.35777 14.0142 6.82438 13.5022 7.53857C12.9901 6.82438 12.1536 6.35777 11.2098 6.35777H6.62495C5.0701 6.35777 3.80512 7.62269 3.80512 9.1776V10.9315C3.40422 11.0799 3.024 11.2712 2.67004 11.4999V3.77454C2.66999 2.29168 3.87637 1.08525 5.35928 1.08525ZM5.81925 10.5719C5.49251 10.5719 5.17205 10.5994 4.85986 10.6514V9.1776C4.85986 8.20439 5.65164 7.41262 6.62484 7.41262H11.2097C12.1829 7.41262 12.9746 8.20439 12.9746 9.1776V10.572H5.81925V10.5719ZM14.0295 9.17755C14.0295 8.20434 14.8213 7.41257 15.7945 7.41257H20.3793C21.3525 7.41257 22.1443 8.20434 22.1443 9.17755V10.6514C21.8321 10.5994 21.5117 10.5719 21.1849 10.5719H14.0295V9.17755ZM5.81925 11.6268H21.1849C23.812 11.6268 25.9493 13.764 25.9493 16.3912V17.9559H20.6594C20.3681 17.9559 20.132 18.1921 20.132 18.4833C20.132 18.7745 20.3681 19.0107 20.6594 19.0107H25.9494V21.1075H1.05485V19.0107H15.3852C15.6765 19.0107 15.9126 18.7745 15.9126 18.4833C15.9126 18.1921 15.6765 17.9559 15.3852 17.9559H1.05485V16.3912C1.05485 13.764 3.19214 11.6268 5.81925 11.6268ZM3.23022 22.827C3.23022 23.4267 2.7423 23.9147 2.14256 23.9147C1.54283 23.9147 1.05485 23.4267 1.05485 22.827V22.1623H3.23022V22.827ZM24.8617 23.9147C24.2619 23.9147 23.774 23.4267 23.774 22.827V22.1623H25.9494V22.827C25.9494 23.4267 25.4614 23.9147 24.8617 23.9147Z" fill="#2D2D2D"/>
<path d="M18.0221 19.0109C18.3135 19.0109 18.5498 18.7747 18.5498 18.4833C18.5498 18.1918 18.3135 17.9556 18.0221 17.9556C17.7306 17.9556 17.4944 18.1918 17.4944 18.4833C17.4944 18.7747 17.7306 19.0109 18.0221 19.0109Z" fill="#2D2D2D"/>
</g>
<defs>
<clipPath id="clip0_6011_353">
<rect width="27.0042" height="25" fill="white"/>
</clipPath>
</defs>
</svg>
