<svg width="21" height="21" viewBox="0 0 21 21" fill="none" xmlns="http://www.w3.org/2000/svg">
<path fill-rule="evenodd" clip-rule="evenodd" d="M0.384419 0.384419C0.89699 -0.12814 1.72801 -0.12814 2.24059 0.384419L10.5 8.64388L18.7595 0.384419C19.272 -0.12814 20.1031 -0.12814 20.6156 0.384419C21.1281 0.89699 21.1281 1.72801 20.6156 2.24059L12.3562 10.5L20.6156 18.7595C21.1281 19.272 21.1281 20.1031 20.6156 20.6156C20.1031 21.1281 19.272 21.1281 18.7595 20.6156L10.5 12.3562L2.24059 20.6156C1.72801 21.1281 0.89699 21.1281 0.384419 20.6156C-0.12814 20.1031 -0.12814 19.272 0.384419 18.7595L8.64388 10.5L0.384419 2.24059C-0.12814 1.72801 -0.12814 0.89699 0.384419 0.384419Z" fill="black"/>
</svg>
