<svg width="20" height="20" viewBox="0 0 20 20" fill="none" xmlns="http://www.w3.org/2000/svg">
<path d="M19.3421 12.2931C19.7055 12.2931 20 12.589 20 12.954V15.3333C20 17.4504 18.2916 19.1667 16.1842 19.1667H3.81579C1.70839 19.1667 0 17.4504 0 15.3333V12.954C0 12.589 0.294549 12.2931 0.657895 12.2931C1.02124 12.2931 1.31579 12.589 1.31579 12.954V15.3333C1.31579 16.7204 2.43508 17.8448 3.81579 17.8448H16.1842C17.5649 17.8448 18.6842 16.7204 18.6842 15.3333V12.954C18.6842 12.589 18.9788 12.2931 19.3421 12.2931ZM10 0C10.3488 0 10.6342 0.272705 10.6565 0.617464L10.6579 0.66092L10.6579 11.565L13.4985 8.90189C13.7526 8.66366 14.1445 8.6665 14.3951 8.90073L14.4283 8.9341C14.6655 9.18934 14.6626 9.58309 14.4295 9.83481L14.3963 9.86823L10.4529 13.5656C10.441 13.5769 10.4287 13.5878 10.416 13.5982C10.4127 13.601 10.4093 13.6037 10.4059 13.6064C10.3981 13.6125 10.3902 13.6185 10.3821 13.6243C10.3765 13.6284 10.3709 13.6323 10.3652 13.6361C10.3595 13.6399 10.3536 13.6437 10.3476 13.6475C10.342 13.651 10.3364 13.6544 10.3307 13.6577C10.322 13.6628 10.3132 13.6677 10.3042 13.6724L10.2936 13.6778C10.2856 13.6818 10.2774 13.6857 10.2692 13.6895C10.2636 13.692 10.2578 13.6945 10.2521 13.6969C10.2448 13.6999 10.2375 13.7028 10.2302 13.7055L10.2112 13.7123C10.2054 13.7143 10.1997 13.7162 10.1939 13.718C10.1859 13.7204 10.1779 13.7227 10.1698 13.7249C10.1482 13.7307 10.1261 13.7354 10.1037 13.739C10.0981 13.7398 10.0925 13.7406 10.087 13.7414L10.0433 13.7457L10 13.7471H9.99974C9.96627 13.7471 9.93275 13.7445 9.89955 13.7394L9.86854 13.7338C9.66715 13.775 9.44964 13.721 9.28795 13.5694L5.34058 9.86823C5.07496 9.61917 5.0606 9.20095 5.30852 8.9341C5.55644 8.66725 5.97274 8.65283 6.23837 8.90189L9.34211 11.8122L9.34211 0.66092C9.34211 0.295904 9.63666 0 10 0Z" fill="#2D2D2D"/>
</svg>
