<svg width="29" height="24" viewBox="0 0 29 24" fill="none" xmlns="http://www.w3.org/2000/svg">
<g clip-path="url(#clip0_2033_4217)">
<path d="M25.8569 0.571289H2.99972C1.42829 0.571289 0.156864 1.857 0.156864 3.42843L0.142578 20.5713C0.142578 22.1427 1.42829 23.4284 2.99972 23.4284H25.8569C27.4283 23.4284 28.714 22.1427 28.714 20.5713V3.42843C28.714 1.857 27.4283 0.571289 25.8569 0.571289ZM25.2854 6.64272L15.1854 12.957C14.7283 13.2427 14.1283 13.2427 13.6712 12.957L3.57115 6.64272C3.4279 6.5623 3.30246 6.45366 3.20242 6.32337C3.10238 6.19307 3.02981 6.04383 2.98911 5.88468C2.94842 5.72552 2.94044 5.55977 2.96566 5.39744C2.99088 5.23512 3.04877 5.07959 3.13584 4.94029C3.2229 4.80099 3.33733 4.6808 3.47219 4.587C3.60705 4.4932 3.75954 4.42773 3.92043 4.39457C4.08132 4.36141 4.24727 4.36124 4.40823 4.39407C4.56919 4.4269 4.72181 4.49205 4.85686 4.58557L14.4283 10.5713L23.9997 4.58557C24.1348 4.49205 24.2874 4.4269 24.4484 4.39407C24.6093 4.36124 24.7753 4.36141 24.9362 4.39457C25.097 4.42773 25.2495 4.4932 25.3844 4.587C25.5193 4.6808 25.6337 4.80099 25.7207 4.94029C25.8078 5.07959 25.8657 5.23512 25.8909 5.39744C25.9161 5.55977 25.9082 5.72552 25.8675 5.88468C25.8268 6.04383 25.7542 6.19307 25.6542 6.32337C25.5541 6.45366 25.4287 6.5623 25.2854 6.64272Z" fill="white"/>
</g>
<defs>
<clipPath id="clip0_2033_4217">
<rect width="29" height="24" fill="white"/>
</clipPath>
</defs>
</svg>
