<svg width="149" height="175" viewBox="0 0 149 175" fill="none" xmlns="http://www.w3.org/2000/svg">
<g clip-path="url(#clip0_2037_6414)">
<path d="M0 148.456H148.456V0H0V148.456ZM69.3735 83.6698C69.3735 84.2565 69.1405 84.8191 68.7256 85.2339C68.3108 85.6488 67.7482 85.8818 67.1615 85.8818H54.6615C51.3605 85.9946 48.2324 87.3851 45.9371 89.7602C43.6418 92.1352 42.3588 95.309 42.3588 98.6119C42.3588 101.915 43.6418 105.089 45.9371 107.464C48.2324 109.839 51.3605 111.229 54.6615 111.342H67.1615C67.7482 111.342 68.3108 111.575 68.7256 111.99C69.1405 112.405 69.3735 112.967 69.3735 113.554V115.588H54.6615C50.2461 115.457 46.0553 113.611 42.9783 110.442C39.9013 107.273 38.1802 103.029 38.1802 98.6119C38.1802 94.1946 39.9013 89.9511 42.9783 86.7817C46.0553 83.6124 50.2461 81.7666 54.6615 81.636H69.3735V83.6698ZM53.0433 66.8201H37.6485V64.7862C37.6485 64.1996 37.8815 63.6369 38.2963 63.2221C38.7112 62.8073 39.2738 62.5742 39.8605 62.5742H53.1027C54.8111 62.6326 56.5136 62.3465 58.1091 61.733C59.7045 61.1195 61.1601 60.1912 62.3893 59.0033C63.6184 57.8155 64.5958 56.3924 65.2634 54.8188C65.931 53.2453 66.275 51.5534 66.275 49.8441C66.275 48.1348 65.931 46.443 65.2634 44.8694C64.5958 43.2958 63.6184 41.8728 62.3893 40.6849C61.1601 39.497 59.7045 38.5687 58.1091 37.9552C56.5136 37.3418 54.8111 37.0557 53.1027 37.114H39.8605C39.2738 37.114 38.7112 36.881 38.2963 36.4661C37.8815 36.0513 37.6485 35.4887 37.6485 34.902V32.8682H52.88C55.1501 32.7878 57.4132 33.1636 59.5355 33.9734C61.6577 34.7832 63.596 36.0105 65.2355 37.5826C66.875 39.1548 68.1825 41.0398 69.0806 43.1263C69.9787 45.2127 70.4491 47.4581 70.464 49.7295C70.4789 52.001 70.0379 54.2523 69.1673 56.3503C68.2967 58.4484 67.014 60.3504 65.3953 61.9439C63.7765 63.5374 61.8546 64.7901 59.7431 65.6276C57.6317 66.4652 55.3737 66.8706 53.1027 66.8201M110.808 66.8201H101.633C97.1662 66.7692 92.8996 64.9591 89.759 61.7824C86.6184 58.6056 84.8572 54.3186 84.8575 49.8515V32.8533H87.0546C87.3451 32.8533 87.6328 32.9105 87.9011 33.0217C88.1695 33.1329 88.4134 33.2958 88.6188 33.5012C88.8242 33.7066 88.9871 33.9505 89.0982 34.2188C89.2094 34.4872 89.2666 34.7748 89.2666 35.0653V49.8218C89.247 51.485 89.5572 53.1356 90.1792 54.6782C90.8012 56.2208 91.7227 57.6249 92.8905 58.8092C94.0584 59.9936 95.4493 60.9348 96.983 61.5785C98.5167 62.2222 100.163 62.5556 101.826 62.5594H108.596C109.182 62.5594 109.745 62.7924 110.16 63.2073C110.575 63.6221 110.808 64.1847 110.808 64.7714V66.8201Z" fill="white"/>
<path d="M4.97329 171.392H4.23101H1.26189V174.911H0V163.792H4.23101C7.00713 163.792 8.68469 165.157 8.68469 167.518C8.74349 168.316 8.5263 169.109 8.06953 169.766C7.61277 170.423 6.94419 170.903 6.17578 171.125L8.7886 174.911H7.30403L4.97329 171.392ZM4.23101 170.205C6.25001 170.205 7.39311 169.314 7.39311 167.577C7.39311 165.84 6.25001 165.039 4.23101 165.039H1.26189V170.205H4.23101Z" fill="white"/>
<path d="M17.5327 165.039V168.705H23.1443V169.923H17.5327V173.738H24.0202V174.941H16.2708V163.821H23.8124V165.039H17.5327Z" fill="white"/>
<path d="M32.3634 172.135L31.1164 174.941H29.7654L34.7536 163.821H36.0748L41.0481 174.941H39.6675L38.4353 172.135H32.3634ZM35.3325 165.261L32.8533 170.903H37.8415L35.3325 165.261Z" fill="white"/>
<path d="M53.7262 173.738V174.941H47.5802V163.821H48.842V173.738H53.7262Z" fill="white"/>
<path d="M70.962 165.039V168.705H76.5736V169.923H70.962V173.738H77.4495V174.941H69.6853V163.821H77.2417V165.039H70.962Z" fill="white"/>
<path d="M91.6419 164.875L91.1075 166.063C90.1922 165.467 89.1266 165.143 88.0344 165.128C86.5499 165.128 85.674 165.662 85.674 166.612C85.674 169.463 91.9388 167.978 91.9092 172.016C91.9092 173.872 90.2761 175.059 87.9008 175.059C86.3192 175.047 84.7995 174.443 83.6401 173.367L84.2043 172.224C85.2022 173.192 86.5257 173.754 87.9157 173.798C89.519 173.798 90.5137 173.144 90.5137 172.075C90.5137 169.106 84.2637 170.71 84.2637 166.716C84.2637 164.964 85.7482 163.836 88.1235 163.836C89.3714 163.84 90.5921 164.201 91.6419 164.875Z" fill="white"/>
<path d="M102.687 165.039V174.941H101.41V165.039H97.788V163.821H106.324V165.039H102.687Z" fill="white"/>
<path d="M112.827 172.135L111.594 174.941H110.243L115.232 163.821H116.553L121.526 174.941H120.249L119.002 172.135H112.827ZM115.796 165.261L113.302 170.903H118.305L115.796 165.261Z" fill="white"/>
<path d="M130.448 165.039V174.941H129.172V165.039H125.549V163.821H134.086V165.039H130.448Z" fill="white"/>
<path d="M141.969 165.039V168.705H147.58V169.923H141.969V173.738H148.456V174.941H140.692V163.821H148.248V165.039H141.969Z" fill="white"/>
</g>
<defs>
<clipPath id="clip0_2037_6414">
<rect width="148.456" height="175" fill="white"/>
</clipPath>
</defs>
</svg>
