<svg width="16" height="16" viewBox="0 0 16 16" fill="none" xmlns="http://www.w3.org/2000/svg">
<path fill-rule="evenodd" clip-rule="evenodd" d="M12.581 15.7417H2.60606C1.22766 15.7417 0.101562 14.6156 0.101562 13.2372V3.26231C0.101562 1.88391 1.22766 0.757812 2.60606 0.757812H12.581C13.9594 0.757812 15.0855 1.88391 15.0855 3.26231V13.2372C15.0855 14.6218 13.9655 15.7417 12.581 15.7417ZM7.59695 12.0989C6.5693 12.0989 5.6032 11.6989 4.87708 10.9728C4.15096 10.2467 3.75098 9.2806 3.75098 8.25295C3.75098 7.22531 4.15096 6.2592 4.87708 5.53308C5.6032 4.80696 6.5693 4.40698 7.59695 4.40698C8.62459 4.40698 9.5907 4.80696 10.3168 5.53308C11.0429 6.2592 11.4429 7.22531 11.4429 8.25295C11.4429 9.2806 11.0429 10.2467 10.3168 10.9728C9.58455 11.6989 8.62459 12.0989 7.59695 12.0989ZM7.59695 5.22541C5.92933 5.22541 4.5694 6.57919 4.5694 8.25295C4.5694 9.92057 5.92318 11.2805 7.59695 11.2805C9.26456 11.2805 10.6245 9.92672 10.6245 8.25295C10.6183 6.58534 9.26456 5.22541 7.59695 5.22541ZM12.931 3.54191C12.931 3.94974 12.6004 4.28036 12.1925 4.28036C11.7847 4.28036 11.4541 3.94974 11.4541 3.54191C11.4541 3.13408 11.7847 2.80347 12.1925 2.80347C12.6004 2.80347 12.931 3.13408 12.931 3.54191Z" fill="#0C0C0C"/>
</svg>
