<svg width="17" height="11" viewBox="0 0 17 11" fill="none" xmlns="http://www.w3.org/2000/svg">
<path d="M16.9546 5.384C16.7948 4.90474 16.4546 4.7402 15.9604 4.74073C10.4933 4.74925 9.10957 4.75103 3.6425 4.74606H3.36773C3.45452 4.65553 3.51044 4.59429 3.56901 4.53305C4.42529 3.68104 5.28209 2.82903 6.13943 1.97702C6.24775 1.87703 6.32533 1.74823 6.36305 1.60572C6.40078 1.4632 6.39709 1.31289 6.35243 1.1724C6.31621 1.03273 6.24066 0.906399 6.13475 0.808414C6.02883 0.71043 5.89701 0.644916 5.75496 0.619658C5.45782 0.554692 5.20807 0.65427 4.99507 0.866208C4.21867 1.63976 3.44157 2.41261 2.66375 3.18475C2.08438 3.76092 1.50537 4.33745 0.926712 4.91433C0.5252 5.31531 0.523603 5.7706 0.926712 6.17158C2.27573 7.5174 3.62741 8.86181 4.98176 10.2048C5.34226 10.5632 5.82365 10.5775 6.15327 10.2527C6.48289 9.92789 6.46426 9.43479 6.10002 9.06842C5.25369 8.22386 4.40629 7.38037 3.55783 6.53794C3.50458 6.48469 3.44654 6.44316 3.39062 6.3963L3.40713 6.34305H3.62546C9.09893 6.34305 10.4894 6.34464 15.9636 6.34784C16.4578 6.34784 16.797 6.1833 16.9583 5.7051L16.9546 5.384Z" fill="#F3F3F3"/>
</svg>
