<svg width="17" height="11" viewBox="0 0 17 11" fill="none" xmlns="http://www.w3.org/2000/svg">
<path d="M16.9546 5.38398C16.7948 4.90472 16.4546 4.74018 15.9604 4.74071C10.4933 4.74923 9.10957 4.751 3.6425 4.74603H3.36773C3.45452 4.65551 3.51044 4.59427 3.56901 4.53303C4.42529 3.68102 5.28209 2.82901 6.13943 1.977C6.24775 1.877 6.32533 1.7482 6.36305 1.60569C6.40078 1.46318 6.39709 1.31287 6.35243 1.17238C6.31621 1.03271 6.24066 0.906376 6.13475 0.808391C6.02883 0.710407 5.89701 0.644893 5.75496 0.619635C5.45782 0.554669 5.20807 0.654248 4.99507 0.866185C4.21867 1.63974 3.44157 2.41259 2.66375 3.18472C2.08438 3.7609 1.50537 4.33742 0.926712 4.91431C0.5252 5.31529 0.523603 5.77058 0.926712 6.17156C2.27573 7.51738 3.62741 8.86178 4.98176 10.2048C5.34226 10.5631 5.82365 10.5775 6.15327 10.2527C6.48289 9.92787 6.46426 9.43476 6.10002 9.0684C5.25369 8.22384 4.40629 7.38035 3.55783 6.53792C3.50458 6.48467 3.44654 6.44314 3.39062 6.39628L3.40713 6.34302H3.62546C9.09893 6.34302 10.4894 6.34462 15.9636 6.34782C16.4578 6.34782 16.797 6.18327 16.9583 5.70508L16.9546 5.38398Z" fill="#2D2D2D"/>
</svg>
