<svg width="19" height="18" viewBox="0 0 19 18" fill="none" xmlns="http://www.w3.org/2000/svg">
<g clip-path="url(#clip0_2033_4254)">
<path d="M2.70311 4.50004H2.67701C2.40066 4.51731 2.12372 4.47734 1.86354 4.38264C1.60335 4.28793 1.36551 4.14053 1.16492 3.94966C0.964337 3.75879 0.805315 3.52856 0.697818 3.27339C0.590321 3.01822 0.536663 2.7436 0.540204 2.46673C0.543744 2.18987 0.604408 1.91671 0.718396 1.66438C0.832383 1.41204 0.99724 1.18595 1.20264 1.00027C1.40805 0.814594 1.64957 0.673321 1.9121 0.5853C2.17462 0.497279 2.4525 0.464406 2.72831 0.48874C3.00467 0.469435 3.28203 0.507421 3.54302 0.600318C3.80401 0.693215 4.04299 0.839021 4.24499 1.0286C4.447 1.21817 4.60767 1.44743 4.71693 1.702C4.82619 1.95657 4.88169 2.23096 4.87995 2.50799C4.87821 2.78501 4.81927 3.05868 4.70682 3.31186C4.59436 3.56504 4.43083 3.79226 4.22646 3.97928C4.02209 4.1663 3.78129 4.3091 3.51916 4.39871C3.25702 4.48832 2.9792 4.52282 2.70311 4.50004ZM0.915714 7.20004H4.51571V18H0.915714V7.20004ZM13.9657 7.20004C13.3591 7.20168 12.7607 7.34039 12.2153 7.60579C11.6698 7.8712 11.1914 8.25645 10.8157 8.73274V7.20004H7.21571V18H10.8157V13.05C10.8157 12.5726 11.0054 12.1148 11.3429 11.7772C11.6805 11.4397 12.1383 11.25 12.6157 11.25C13.0931 11.25 13.5509 11.4397 13.8885 11.7772C14.2261 12.1148 14.4157 12.5726 14.4157 13.05V18H18.0157V11.25C18.0157 10.1759 17.589 9.14578 16.8295 8.38626C16.07 7.62674 15.0398 7.20004 13.9657 7.20004Z" fill="#0C0C0C"/>
</g>
<defs>
<clipPath id="clip0_2033_4254">
<rect width="19" height="18" fill="white"/>
</clipPath>
</defs>
</svg>
