<svg width="30" height="31" viewBox="0 0 30 31" fill="none" xmlns="http://www.w3.org/2000/svg">
<g clip-path="url(#clip0_2046_6655)">
<g clip-path="url(#clip1_2046_6655)">
<path opacity="0.4" d="M15.1517 30.4995C14.925 30.4995 14.7075 30.4095 14.5472 30.2492C14.3869 30.0889 14.2969 29.8715 14.2969 29.6447V24.2728C14.2969 24.0461 14.3869 23.8286 14.5472 23.6683C14.7075 23.508 14.925 23.418 15.1517 23.418C15.3784 23.418 15.5958 23.508 15.7561 23.6683C15.9164 23.8286 16.0065 24.0461 16.0065 24.2728V29.646C16.0061 29.8725 15.9159 30.0896 15.7557 30.2496C15.5954 30.4097 15.3782 30.4995 15.1517 30.4995Z" fill="black"/>
<path opacity="0.3" d="M7.27615 28.1706C7.12228 28.1705 6.97128 28.1289 6.83909 28.0501C6.70691 27.9714 6.59844 27.8584 6.52513 27.7231C6.45181 27.5878 6.41638 27.4352 6.42257 27.2815C6.42875 27.1277 6.47632 26.9785 6.56026 26.8495L9.49007 22.3452C9.61437 22.1567 9.80818 22.025 10.0292 21.9789C10.2502 21.9328 10.4805 21.9761 10.6698 22.0992C10.859 22.2223 10.9919 22.4153 11.0394 22.636C11.0868 22.8567 11.0451 23.0873 10.9231 23.2773L7.99333 27.7817C7.91568 27.9012 7.80939 27.9993 7.68413 28.0672C7.55888 28.1352 7.41864 28.1707 7.27615 28.1706Z" fill="black"/>
<path opacity="0.2" d="M2.04347 22.1449C1.84869 22.1452 1.65965 22.0789 1.50767 21.9571C1.35569 21.8353 1.24987 21.6652 1.20774 21.475C1.16561 21.2848 1.18968 21.086 1.27599 20.9114C1.3623 20.7367 1.50564 20.5968 1.68231 20.5148L6.55466 18.2471C6.75965 18.1549 6.9927 18.1472 7.20334 18.2256C7.41397 18.304 7.58527 18.4622 7.68012 18.6659C7.77498 18.8697 7.78577 19.1026 7.71015 19.3143C7.63454 19.5259 7.47861 19.6993 7.27612 19.7968L2.40377 22.0646C2.29104 22.1175 2.16802 22.145 2.04347 22.1449Z" fill="black"/>
<path opacity="0.1" d="M6.17125 14.7042C6.12905 14.7042 6.08691 14.7011 6.04517 14.6948L0.729616 13.9075C0.505347 13.8743 0.30345 13.7534 0.168352 13.5713C0.0332548 13.3892 -0.0239869 13.1609 0.00922559 12.9367C0.0424381 12.7124 0.163391 12.5105 0.345458 12.3754C0.527525 12.2403 0.755797 12.1831 0.980066 12.2163L6.29563 13.0036C6.50942 13.0348 6.70345 13.1458 6.8387 13.3143C6.97395 13.4828 7.04037 13.6963 7.02461 13.9117C7.00885 14.1272 6.91207 14.3287 6.75375 14.4758C6.59543 14.6228 6.38731 14.7044 6.17125 14.7042Z" fill="black"/>
<path d="M8.29607 10.0926C8.08997 10.0926 7.89084 10.018 7.73533 9.88275L3.68187 6.35585C3.59614 6.2825 3.52577 6.19288 3.47484 6.09219C3.42391 5.99151 3.39342 5.88173 3.38513 5.7692C3.37683 5.65667 3.39089 5.54361 3.42651 5.43654C3.46213 5.32947 3.5186 5.23052 3.59265 5.14538C3.6667 5.06025 3.75687 4.99061 3.85797 4.94049C3.95907 4.89038 4.06908 4.86078 4.18168 4.85339C4.29427 4.84601 4.40721 4.861 4.51399 4.89748C4.62076 4.93396 4.71926 4.99122 4.8038 5.06596L8.85768 8.59285C8.9891 8.70717 9.08245 8.85891 9.12526 9.02775C9.16806 9.19658 9.15827 9.37446 9.09719 9.53758C9.03611 9.70069 8.92665 9.84124 8.78348 9.94044C8.64031 10.0396 8.47025 10.0927 8.29607 10.0926Z" fill="black"/>
<path d="M12.5238 7.35544C12.3402 7.35532 12.1615 7.29607 12.0141 7.18645C11.8668 7.07683 11.7587 6.92268 11.7058 6.74682L10.156 1.6018C10.1224 1.49394 10.1104 1.38047 10.1208 1.26797C10.1313 1.15546 10.1639 1.04613 10.2169 0.94632C10.2699 0.846508 10.3421 0.758191 10.4294 0.686469C10.5167 0.614746 10.6174 0.561041 10.7256 0.528469C10.8338 0.495897 10.9474 0.485105 11.0597 0.496706C11.1721 0.508307 11.2811 0.542078 11.3804 0.596064C11.4796 0.650049 11.5672 0.72318 11.638 0.811224C11.7089 0.899269 11.7615 1.00048 11.793 1.10901L13.3427 6.25403C13.3751 6.36151 13.386 6.47433 13.3748 6.58603C13.3636 6.69772 13.3305 6.80611 13.2774 6.90501C13.2243 7.00391 13.1522 7.09139 13.0653 7.16244C12.9784 7.23349 12.8784 7.28673 12.7709 7.31912C12.6907 7.34303 12.6075 7.35526 12.5238 7.35544Z" fill="black"/>
<path opacity="0.9" d="M17.7771 7.35543C17.6935 7.35524 17.6103 7.34302 17.5301 7.3191C17.4226 7.28672 17.3225 7.23348 17.2356 7.16243C17.1487 7.09138 17.0767 7.0039 17.0236 6.905C16.9705 6.8061 16.9374 6.69771 16.9261 6.58601C16.9149 6.47432 16.9258 6.3615 16.9582 6.25402L18.5075 1.10857C18.5399 1.00105 18.5931 0.900974 18.6642 0.814029C18.7352 0.727084 18.8227 0.654974 18.9216 0.601832C19.0205 0.54869 19.1289 0.515549 19.2406 0.5043C19.3523 0.493052 19.4651 0.503925 19.5726 0.536282C19.6801 0.568639 19.7802 0.621847 19.8672 0.692884C19.9541 0.763921 20.0262 0.851392 20.0794 0.950294C20.1325 1.0492 20.1656 1.15759 20.1769 1.2693C20.1881 1.38101 20.1773 1.49385 20.1449 1.60136L18.5952 6.74638C18.5424 6.92232 18.4343 7.07657 18.2869 7.18627C18.1396 7.29597 17.9608 7.35528 17.7771 7.35543Z" fill="black"/>
<path opacity="0.8" d="M22.0038 10.0913C21.8297 10.0915 21.6596 10.0383 21.5164 9.93915C21.3733 9.83996 21.2638 9.69941 21.2027 9.53629C21.1416 9.37318 21.1318 9.1953 21.1747 9.02646C21.2175 8.85763 21.3108 8.70588 21.4422 8.59157L25.4961 5.06467C25.6675 4.91806 25.8898 4.84511 26.1147 4.86169C26.3396 4.87827 26.5488 4.98304 26.6968 5.15319C26.8448 5.32334 26.9196 5.54508 26.9048 5.7701C26.8901 5.99512 26.787 6.2052 26.618 6.35457L22.5646 9.88147C22.4091 10.0167 22.2099 10.0913 22.0038 10.0913Z" fill="black"/>
<path opacity="0.7" d="M24.1291 14.7041C23.913 14.7044 23.7049 14.6228 23.5466 14.4757C23.3883 14.3287 23.2915 14.1272 23.2757 13.9117C23.26 13.6962 23.3264 13.4828 23.4616 13.3143C23.5969 13.1458 23.7909 13.0347 24.0047 13.0035L29.3203 12.2163C29.5445 12.183 29.7728 12.2403 29.9549 12.3754C30.1369 12.5105 30.2579 12.7124 30.2911 12.9366C30.3243 13.1609 30.2671 13.3892 30.132 13.5713C29.9969 13.7533 29.795 13.8743 29.5707 13.9075L24.2543 14.6948C24.2128 14.701 24.171 14.7041 24.1291 14.7041Z" fill="black"/>
<path opacity="0.6" d="M28.2556 22.1449C28.1311 22.1447 28.0081 22.1173 27.8953 22.0646L23.0229 19.7968C22.8204 19.6993 22.6645 19.5259 22.5889 19.3143C22.5133 19.1026 22.5241 18.8697 22.6189 18.6659C22.7138 18.4622 22.8851 18.304 23.0957 18.2256C23.3063 18.1472 23.5394 18.1549 23.7444 18.2471L28.6167 20.5148C28.7934 20.5969 28.9368 20.7368 29.0231 20.9115C29.1094 21.0861 29.1334 21.285 29.0913 21.4752C29.0491 21.6654 28.9432 21.8355 28.7911 21.9573C28.6391 22.0791 28.45 22.1453 28.2551 22.1449H28.2556Z" fill="black"/>
<path opacity="0.5" d="M23.0167 28.1706C22.8742 28.1707 22.734 28.1352 22.6087 28.0672C22.4835 27.9993 22.3772 27.9012 22.2995 27.7817L19.3697 23.2773C19.2478 23.0873 19.206 22.8567 19.2535 22.636C19.301 22.4153 19.4338 22.2223 19.6231 22.0992C19.8123 21.9761 20.0426 21.9328 20.2637 21.9789C20.4847 22.025 20.6785 22.1567 20.8028 22.3452L23.7326 26.8495C23.8165 26.9785 23.8641 27.1277 23.8703 27.2815C23.8765 27.4352 23.841 27.5878 23.7677 27.7231C23.6944 27.8584 23.586 27.9714 23.4538 28.0501C23.3216 28.1289 23.1706 28.1705 23.0167 28.1706Z" fill="black"/>
</g>
</g>
<defs>
<clipPath id="clip0_2046_6655">
<rect width="30" height="30" fill="white" transform="translate(0 0.5)"/>
</clipPath>
<clipPath id="clip1_2046_6655">
<rect width="30.2992" height="30" fill="white" transform="translate(0 0.5)"/>
</clipPath>
</defs>
</svg>
