<svg width="46" height="42" viewBox="0 0 46 42" fill="none" xmlns="http://www.w3.org/2000/svg">
<path d="M43.0653 20.5996V6.30552C43.0653 2.8286 40.2042 0 36.6874 0H9.1292C5.61236 0 2.75129 2.82868 2.75129 6.30552V20.784C1.04785 22.5446 0 24.9302 0 27.5532V38.3917C0 40.3813 1.63722 42 3.64972 42C5.66213 42 7.29936 40.3813 7.29936 38.3917V37.2724H38.7007V38.3917C38.7007 40.3813 40.338 42 42.3504 42C44.3628 42 46 40.3814 46 38.3917V27.5532C46 24.8374 44.8766 22.3762 43.0653 20.5996ZM9.1292 1.77648H36.6874C39.2135 1.77648 41.2685 3.80823 41.2685 6.30552V19.2016C40.7182 18.8666 40.1326 18.5833 39.5184 18.3586V15.4048C39.5184 12.7863 37.3636 10.6559 34.715 10.6559H26.9051C25.2972 10.6559 23.8724 11.4418 23.0001 12.6445C22.1278 11.4418 20.703 10.6559 19.0951 10.6559H11.2852C8.63659 10.6559 6.48178 12.7862 6.48178 15.4048V18.3586C5.79887 18.6084 5.15119 18.9307 4.54825 19.3158V6.30552C4.54816 3.80823 6.60316 1.77648 9.1292 1.77648ZM9.91273 17.753C9.35615 17.753 8.81026 17.7993 8.27847 17.8869V15.4048C8.27847 13.7658 9.62721 12.4324 11.285 12.4324H19.0949C20.7527 12.4324 22.1015 13.7658 22.1015 15.4048V17.753H9.91273V17.753ZM23.8984 15.4047C23.8984 13.7657 25.2472 12.4323 26.905 12.4323H34.7149C36.3727 12.4323 37.7214 13.7657 37.7214 15.4047V17.8868C37.1896 17.7992 36.6438 17.7529 36.0872 17.7529H23.8984V15.4047ZM9.91273 19.5294H36.0872C40.5623 19.5294 44.203 23.1288 44.203 27.5532V30.1883H35.1921C34.6959 30.1883 34.2936 30.586 34.2936 31.0765C34.2936 31.567 34.6959 31.9648 35.1921 31.9648H44.2031V35.496H1.79688V31.9648H26.2077C26.7039 31.9648 27.1061 31.567 27.1061 31.0765C27.1061 30.586 26.7039 30.1883 26.2077 30.1883H1.79688V27.5532C1.79688 23.1288 5.43761 19.5294 9.91273 19.5294ZM5.50248 38.3917C5.50248 39.4017 4.67134 40.2235 3.64972 40.2235C2.62811 40.2235 1.79688 39.4017 1.79688 38.3917V37.2724H5.50248V38.3917ZM42.3503 40.2235C41.3287 40.2235 40.4975 39.4017 40.4975 38.3917V37.2724H44.2031V38.3917C44.2031 39.4017 43.372 40.2235 42.3503 40.2235Z" fill="#2D2D2D"/>
</svg>
