<svg width="26" height="29" viewBox="0 0 26 29" fill="none" xmlns="http://www.w3.org/2000/svg">
<g clip-path="url(#clip0_2033_4233)">
<path d="M13.0427 0.393555C16.2856 0.393555 19.3957 1.68178 21.6887 3.97485C23.9818 6.26791 25.27 9.37797 25.27 12.6209C25.27 17.683 21.4116 22.9869 13.8579 28.6522C13.6227 28.8286 13.3367 28.9239 13.0427 28.9239C12.7488 28.9239 12.4627 28.8286 12.2276 28.6522C4.67382 22.9869 0.81543 17.683 0.81543 12.6209C0.81543 9.37797 2.10366 6.26791 4.39672 3.97485C6.68978 1.68178 9.79984 0.393555 13.0427 0.393555ZM13.0427 8.54509C11.9618 8.54509 10.9251 8.97449 10.1607 9.73885C9.39637 10.5032 8.96696 11.5399 8.96696 12.6209C8.96696 13.7018 9.39637 14.7385 10.1607 15.5029C10.9251 16.2672 11.9618 16.6966 13.0427 16.6966C14.1237 16.6966 15.1604 16.2672 15.9247 15.5029C16.6891 14.7385 17.1185 13.7018 17.1185 12.6209C17.1185 11.5399 16.6891 10.5032 15.9247 9.73885C15.1604 8.97449 14.1237 8.54509 13.0427 8.54509Z" fill="white"/>
</g>
<defs>
<clipPath id="clip0_2033_4233">
<rect width="26" height="29" fill="white"/>
</clipPath>
</defs>
</svg>
