<svg width="111" height="130" viewBox="0 0 111 130" fill="none" xmlns="http://www.w3.org/2000/svg">
<g clip-path="url(#clip0_6049_32)">
<path d="M0 110.282H110.282V0H0V110.282ZM51.5346 62.1547C51.5346 62.5905 51.3615 63.0085 51.0533 63.3167C50.7452 63.6248 50.3272 63.7979 49.8914 63.7979H40.6057C38.1535 63.8817 35.8298 64.9147 34.1247 66.679C32.4196 68.4433 31.4665 70.801 31.4665 73.2546C31.4665 75.7082 32.4196 78.0658 34.1247 79.8302C35.8298 81.5945 38.1535 82.6275 40.6057 82.7112H49.8914C50.3272 82.7112 50.7452 82.8843 51.0533 83.1925C51.3615 83.5007 51.5346 83.9186 51.5346 84.3544V85.8653H40.6057C37.3257 85.7683 34.2125 84.3971 31.9268 82.0427C29.641 79.6884 28.3625 76.536 28.3625 73.2546C28.3625 69.9731 29.641 66.8208 31.9268 64.4664C34.2125 62.112 37.3257 60.7409 40.6057 60.6439H51.5346V62.1547ZM39.4036 49.6378H27.9674V48.1269C27.9674 47.6911 28.1406 47.2732 28.4487 46.965C28.7569 46.6568 29.1748 46.4837 29.6106 46.4837H39.4478C40.7168 46.5271 41.9816 46.3145 43.1667 45.8588C44.3519 45.4031 45.4332 44.7135 46.3463 43.831C47.2594 42.9486 47.9855 41.8915 48.4814 40.7226C48.9773 39.5536 49.2329 38.2968 49.2329 37.0271C49.2329 35.7573 48.9773 34.5005 48.4814 33.3316C47.9855 32.1626 47.2594 31.1055 46.3463 30.2231C45.4332 29.3407 44.3519 28.6511 43.1667 28.1953C41.9816 27.7396 40.7168 27.5271 39.4478 27.5704H29.6106C29.1748 27.5704 28.7569 27.3973 28.4487 27.0891C28.1406 26.781 27.9674 26.363 27.9674 25.9272V24.4164H39.2823C40.9687 24.3567 42.6498 24.6358 44.2264 25.2374C45.8029 25.8389 47.2427 26.7506 48.4607 27.9185C49.6786 29.0864 50.6499 30.4867 51.317 32.0367C51.9841 33.5866 52.3336 35.2546 52.3447 36.9419C52.3557 38.6293 52.0282 40.3017 51.3814 41.8603C50.7347 43.4188 49.7819 44.8317 48.5794 46.0155C47.3769 47.1993 45.9491 48.1298 44.3806 48.7519C42.8121 49.3741 41.1347 49.6753 39.4478 49.6378M82.3142 49.6378H75.4988C72.1806 49.6 69.0111 48.2553 66.6781 45.8955C64.3451 43.5356 63.0368 40.351 63.037 37.0326V24.4053H64.6692C64.885 24.4053 65.0986 24.4478 65.298 24.5304C65.4974 24.613 65.6785 24.734 65.8311 24.8866C65.9837 25.0392 66.1047 25.2203 66.1873 25.4197C66.2698 25.6191 66.3124 25.8327 66.3124 26.0485V37.0105C66.2978 38.246 66.5282 39.4722 66.9902 40.6181C67.4523 41.764 68.1369 42.807 69.0044 43.6869C69.8719 44.5667 70.9052 45.2659 72.0445 45.744C73.1838 46.2222 74.4066 46.4699 75.6422 46.4727H80.671C81.1068 46.4727 81.5248 46.6458 81.8329 46.954C82.1411 47.2621 82.3142 47.6801 82.3142 48.1159V49.6378Z" fill="white"/>
<path d="M3.69444 127.32H3.14303H0.937401V129.934H0V121.674H3.14303C5.2053 121.674 6.45148 122.688 6.45148 124.442C6.49516 125.035 6.33382 125.624 5.99451 126.112C5.6552 126.6 5.15854 126.956 4.58772 127.122L6.52867 129.934H5.42585L3.69444 127.32ZM3.14303 126.438C4.64286 126.438 5.49202 125.776 5.49202 124.486C5.49202 123.196 4.64286 122.6 3.14303 122.6H0.937401V126.438H3.14303Z" fill="white"/>
<path d="M13.0242 122.6V125.324H17.1929V126.228H13.0242V129.063H17.8436V129.956H12.0869V121.696H17.6892V122.6H13.0242Z" fill="white"/>
<path d="M24.0414 127.872L23.115 129.956H22.1115L25.8169 121.696H26.7984L30.4928 129.956H29.4672L28.5519 127.872H24.0414ZM26.247 122.766L24.4053 126.956H28.1108L26.247 122.766Z" fill="white"/>
<path d="M39.9109 129.063V129.956H35.3453V121.696H36.2827V129.063H39.9109Z" fill="white"/>
<path d="M52.7146 122.6V125.324H56.8832V126.228H52.7146V129.063H57.5339V129.956H51.7662V121.696H57.3795V122.6H52.7146Z" fill="white"/>
<path d="M68.0769 122.479L67.6799 123.361C66.9999 122.918 66.2084 122.677 65.397 122.666C64.2942 122.666 63.6435 123.063 63.6435 123.769C63.6435 125.886 68.2974 124.784 68.2754 127.783C68.2754 129.162 67.0623 130.044 65.2978 130.044C64.1228 130.035 62.9939 129.586 62.1327 128.787L62.5518 127.938C63.2931 128.657 64.2763 129.074 65.3088 129.107C66.4998 129.107 67.2387 128.621 67.2387 127.827C67.2387 125.622 62.5959 126.813 62.5959 123.846C62.5959 122.545 63.6987 121.707 65.4632 121.707C66.3902 121.71 67.297 121.978 68.0769 122.479Z" fill="white"/>
<path d="M76.2818 122.6V129.956H75.3334V122.6H72.6425V121.696H78.9837V122.6H76.2818Z" fill="white"/>
<path d="M83.814 127.872L82.8987 129.956H81.8951L85.6006 121.696H86.5821L90.2765 129.956H89.3281L88.4018 127.872H83.814ZM86.0197 122.766L84.1669 126.956H87.8834L86.0197 122.766Z" fill="white"/>
<path d="M96.9045 122.6V129.956H95.9561V122.6H93.2652V121.696H99.6064V122.6H96.9045Z" fill="white"/>
<path d="M105.462 122.6V125.324H109.631V126.228H105.462V129.063H110.282V129.956H104.514V121.696H110.127V122.6H105.462Z" fill="white"/>
</g>
<defs>
<clipPath id="clip0_6049_32">
<rect width="110.282" height="130" fill="white"/>
</clipPath>
</defs>
</svg>
