<svg width="22" height="28" viewBox="0 0 22 28" fill="none" xmlns="http://www.w3.org/2000/svg">
<g clip-path="url(#clip0_2033_4225)">
<path d="M6.13829 0.670872C6.87343 0.449224 7.66231 0.486047 8.3736 0.775211C9.0849 1.06438 9.6757 1.58844 10.0477 2.26015L10.172 2.51047L11.2841 4.98175C11.6217 5.73184 11.7312 6.56462 11.5992 7.37649C11.4672 8.18835 11.0994 8.9435 10.5416 9.54799L10.3181 9.76975L8.56589 11.4044C8.25005 11.7034 8.48693 12.861 9.62933 14.84C10.6575 16.6208 11.4941 17.4524 11.9057 17.4978H11.978L12.067 17.481L15.511 16.4276C15.9739 16.2856 16.4678 16.28 16.9338 16.4114C17.3998 16.5428 17.818 16.8056 18.1385 17.1685L18.2914 17.3617L20.5712 20.5201C21.018 21.1391 21.2406 21.8919 21.2024 22.6544C21.1643 23.4169 20.8676 24.1437 20.3612 24.715L20.1562 24.9267L19.2457 25.7902C18.428 26.5646 17.4052 27.0878 16.2988 27.2978C15.1924 27.5078 14.049 27.3956 13.0045 26.9746C9.75366 25.6642 6.80021 22.6705 4.11725 18.0236C1.42925 13.365 0.312053 9.30439 0.811014 5.82679C0.962001 4.77556 1.39488 3.78485 2.06368 2.95987C2.73248 2.13488 3.61223 1.50644 4.60949 1.14127L4.93373 1.03375L6.13829 0.670872Z" fill="white"/>
</g>
<defs>
<clipPath id="clip0_2033_4225">
<rect width="22" height="28" fill="white"/>
</clipPath>
</defs>
</svg>
