<svg width="84" height="84" viewBox="0 0 84 84" fill="none" xmlns="http://www.w3.org/2000/svg">
<path fill-rule="evenodd" clip-rule="evenodd" d="M41.89 0C53.457 0 63.93 4.689 71.511 12.27C79.091 19.85 83.78 30.323 83.78 41.89C83.78 53.457 79.091 63.93 71.511 71.511C63.93 79.091 53.457 83.78 41.89 83.78C30.323 83.78 19.85 79.091 12.269 71.511C4.689 63.93 0 53.457 0 41.89C0 30.323 4.689 19.85 12.27 12.269C19.85 4.689 30.323 0 41.89 0ZM61.244 43.624C61.548 43.455 61.811 43.203 61.997 42.88C62.544 41.929 62.216 40.715 61.265 40.168L46.869 31.856L32.639 23.64C32.313 23.408 31.914 23.272 31.484 23.272C30.382 23.272 29.489 24.165 29.489 25.267V41.89V58.513H29.497C29.497 58.849 29.582 59.19 29.761 59.503C30.308 60.454 31.522 60.782 32.473 60.235L46.869 51.923L61.244 43.624Z" fill="white"/>
</svg>
