<svg width="17" height="10" viewBox="0 0 17 10" fill="none" xmlns="http://www.w3.org/2000/svg">
<path d="M0.00372794 4.78388C0.16348 4.30462 0.503751 4.14008 0.997918 4.14061C6.46499 4.14913 7.84874 4.15091 13.3158 4.14594H13.5906C13.5038 4.05541 13.4479 3.99417 13.3893 3.93293C12.533 3.08092 11.6762 2.22891 10.8189 1.3769C10.7106 1.27691 10.633 1.14811 10.5953 1.00559C10.5575 0.863084 10.5612 0.712771 10.6059 0.57228C10.6421 0.432612 10.7177 0.306278 10.8236 0.208294C10.9295 0.11031 11.0613 0.0447954 11.2034 0.019537C11.5005 -0.0454289 11.7502 0.0541499 11.9632 0.266088C12.7396 1.03964 13.5167 1.81249 14.2946 2.58463C14.8739 3.1608 15.4529 3.73733 16.0316 4.31421C16.4331 4.71519 16.4347 5.17048 16.0316 5.57146C14.6826 6.91728 13.3309 8.26169 11.9766 9.60467C11.616 9.96305 11.1347 9.97743 10.805 9.6526C10.4754 9.32777 10.4941 8.83467 10.8583 8.4683C11.7046 7.62374 12.552 6.78025 13.4005 5.93782C13.4537 5.88457 13.5118 5.84304 13.5677 5.79618L13.5512 5.74293H13.3329C7.85939 5.74293 6.4689 5.74452 0.994724 5.74772C0.500557 5.74772 0.16135 5.58317 0 5.10498L0.00372794 4.78388Z" fill="#2D2D2D"/>
</svg>
