<svg width="17" height="10" viewBox="0 0 17 10" fill="none" xmlns="http://www.w3.org/2000/svg">
<path d="M0.00372794 4.7839C0.16348 4.30465 0.503751 4.1401 0.997918 4.14064C6.46499 4.14916 7.84874 4.15093 13.3158 4.14596H13.5906C13.5038 4.05543 13.4479 3.99419 13.3893 3.93296C12.533 3.08094 11.6762 2.22893 10.8189 1.37692C10.7106 1.27693 10.633 1.14813 10.5953 1.00562C10.5575 0.863107 10.5612 0.712794 10.6059 0.572302C10.6421 0.432635 10.7177 0.306301 10.8236 0.208317C10.9295 0.110332 11.0613 0.0448183 11.2034 0.0195599C11.5005 -0.045406 11.7502 0.0541728 11.9632 0.266111C12.7396 1.03967 13.5167 1.81251 14.2946 2.58465C14.8739 3.16082 15.4529 3.73735 16.0316 4.31423C16.4331 4.71521 16.4347 5.1705 16.0316 5.57148C14.6826 6.91731 13.3309 8.26171 11.9766 9.60469C11.616 9.96307 11.1347 9.97745 10.805 9.65262C10.4754 9.32779 10.4941 8.83469 10.8583 8.46832C11.7046 7.62377 12.552 6.78027 13.4005 5.93785C13.4537 5.8846 13.5118 5.84306 13.5677 5.7962L13.5512 5.74295H13.3329C7.85939 5.74295 6.4689 5.74455 0.994724 5.74774C0.500557 5.74774 0.16135 5.5832 0 5.10501L0.00372794 4.7839Z" fill="#F3F3F3"/>
</svg>
