<svg width="18" height="18" viewBox="0 0 18 18" fill="none" xmlns="http://www.w3.org/2000/svg">
<path d="M16.8365 15.5636L16.8365 15.5636L14.644 13.3712C15.681 12.0593 16.3 10.4018 16.3 8.59986C16.3 4.34739 12.8527 0.9 8.59985 0.9C4.34739 0.9 0.9 4.34733 0.9 8.59986C0.9 12.8527 4.34732 16.3001 8.59985 16.3001C10.4018 16.3001 12.0595 15.681 13.3712 14.644L15.5636 16.8365L15.5636 16.8365C15.9151 17.1878 16.4849 17.1878 16.8365 16.8365L16.8365 16.8365C17.1878 16.485 17.1878 15.9151 16.8365 15.5636ZM2.69982 8.59973V8.57952C2.71073 5.33037 5.34815 2.69969 8.59985 2.69969C11.8583 2.69969 14.4999 5.3413 14.4999 8.59976C14.4999 10.1802 13.8786 11.6153 12.8669 12.6745C12.8309 12.7011 12.7963 12.7307 12.7636 12.7635C12.7308 12.7962 12.7012 12.8308 12.6746 12.8668C11.6154 13.8785 10.1803 14.4998 8.59988 14.4998C5.34143 14.4998 2.69982 11.8582 2.69982 8.59973Z" fill="white" stroke="white" stroke-width="0.2"/>
</svg>
