<svg width="25" height="25" viewBox="0 0 25 25" fill="none" xmlns="http://www.w3.org/2000/svg">
<path fill-rule="evenodd" clip-rule="evenodd" d="M18.0774 10.2678C18.0774 11.2933 17.8753 12.3089 17.4829 13.2564C17.0904 14.2039 16.5152 15.0648 15.79 15.79C15.0648 16.5152 14.2038 17.0904 13.2563 17.4829C12.3088 17.8754 11.2933 18.0774 10.2677 18.0774C9.24215 18.0774 8.22662 17.8754 7.27912 17.4829C6.33161 17.0904 5.47068 16.5152 4.74549 15.79C4.0203 15.0648 3.44505 14.2039 3.05258 13.2564C2.66011 12.3089 2.45811 11.2933 2.45811 10.2678C2.45811 8.19652 3.2809 6.21011 4.74549 4.74552C6.21008 3.28093 8.19649 2.45814 10.2677 2.45814C12.339 2.45814 14.3254 3.28093 15.79 4.74552C17.2546 6.21011 18.0774 8.19652 18.0774 10.2678ZM16.5355 18.1131C14.5305 19.7149 11.9882 20.4882 9.43084 20.2742C6.87345 20.0602 4.49509 18.8751 2.78419 16.9623C1.07329 15.0495 0.159743 12.5542 0.231157 9.98883C0.302571 7.4235 1.35353 4.98289 3.16819 3.16822C4.98285 1.35356 7.42347 0.302601 9.9888 0.231187C12.5541 0.159773 15.0494 1.07332 16.9622 2.78422C18.875 4.49512 20.0602 6.87349 20.2742 9.43087C20.4882 11.9882 19.7149 14.5305 18.1131 16.5355L24.4455 22.8658C24.5493 22.9695 24.6316 23.0927 24.6877 23.2282C24.7438 23.3637 24.7727 23.509 24.7727 23.6557C24.7727 23.8024 24.7438 23.9476 24.6877 24.0832C24.6316 24.2187 24.5493 24.3418 24.4455 24.4456C24.3418 24.5493 24.2187 24.6316 24.0831 24.6877C23.9476 24.7439 23.8023 24.7728 23.6557 24.7728C23.509 24.7728 23.3637 24.7439 23.2282 24.6877C23.0926 24.6316 22.9695 24.5493 22.8658 24.4456L16.5377 18.1131H16.5355Z" fill="white"/>
</svg>
