<svg width="25" height="25" viewBox="0 0 25 25" fill="none" xmlns="http://www.w3.org/2000/svg">
<g clip-path="url(#clip0_6011_373)">
<path d="M9.82855 15.1799C9.58504 14.9364 9.18917 14.9364 8.94566 15.1799L5.01575 19.1099V15.622C5.01575 15.2774 4.73602 14.9976 4.39136 14.9976C4.04669 14.9976 3.76697 15.2774 3.76697 15.622V20.6171C3.76697 20.6983 3.7832 20.7795 3.81567 20.8557C3.87811 21.008 4.00049 21.1304 4.15409 21.1941C4.22902 21.224 4.31019 21.2415 4.39136 21.2415H9.38648C9.73114 21.2415 10.0109 20.9618 10.0109 20.6171C10.0109 20.2725 9.73114 19.9927 9.38648 19.9927H5.89864L9.8273 16.0641C10.0721 15.8193 10.0721 15.4247 9.82855 15.1799Z" fill="#2D2D2D"/>
<path d="M20.864 3.806C20.7878 3.77603 20.7067 3.75854 20.6255 3.75854H15.6304C15.2857 3.75854 15.006 4.03827 15.006 4.38294C15.006 4.7276 15.2857 5.00733 15.6304 5.00733H19.1182L15.1896 8.93599C14.946 9.1795 14.946 9.57536 15.1896 9.81888C15.3107 9.94126 15.4705 10.0024 15.6304 10.0024C15.7902 10.0024 15.9501 9.94126 16.0724 9.82013L20.0011 5.89021V9.37806C20.0011 9.72272 20.2808 10.0024 20.6255 10.0024C20.9702 10.0024 21.2499 9.72272 21.2499 9.37806V4.38294C21.2499 4.30176 21.2337 4.22059 21.2012 4.14442C21.1387 3.99207 21.0164 3.86969 20.864 3.806Z" fill="#2D2D2D"/>
<path d="M21.8743 0.012207H3.14258C1.42176 0.012207 0.0206299 1.41209 0.0206299 3.13416V21.8659C0.0206299 23.5879 1.42176 24.9878 3.14258 24.9878H21.8743C23.5951 24.9878 24.9962 23.5879 24.9962 21.8659V3.13416C24.9962 1.41209 23.5951 0.012207 21.8743 0.012207ZM23.7475 21.8659C23.7475 22.8986 22.907 23.739 21.8743 23.739H3.14258C2.10984 23.739 1.26941 22.8986 1.26941 21.8659V3.13416C1.26941 2.10142 2.10984 1.26099 3.14258 1.26099H21.8743C22.907 1.26099 23.7475 2.10142 23.7475 3.13416V21.8659Z" fill="#2D2D2D"/>
</g>
<defs>
<clipPath id="clip0_6011_373">
<rect width="25" height="25" fill="white" transform="translate(0.00842285)"/>
</clipPath>
</defs>
</svg>
