<svg width="33" height="32" viewBox="0 0 33 32" fill="none" xmlns="http://www.w3.org/2000/svg">
<g clip-path="url(#clip0_2033_4262)">
<path d="M32.0114 4.21813C31.9199 4.50072 31.8534 4.78332 31.7454 5.05761C31.0223 6.89449 28.9527 7.80046 27.1075 7.08566C26.8747 6.99423 26.7501 7.03579 26.5755 7.20202C24.855 8.93917 23.1178 10.6597 21.3973 12.3968C21.2145 12.5797 21.1397 12.5631 20.9984 12.3636C20.6493 11.8732 20.2254 11.441 19.7267 11.1002C19.5438 10.9755 19.5355 10.9007 19.7017 10.7428C21.4472 9.01397 23.176 7.26852 24.9215 5.53969C25.0877 5.37345 25.1293 5.24878 25.0379 5.01605C24.5308 3.628 24.7636 2.348 25.7693 1.27579C26.7667 0.211894 28.0217 -0.137197 29.4264 0.295011C30.8394 0.727218 31.6706 1.71631 31.9449 3.16254C31.9532 3.21241 31.9366 3.27059 32.003 3.28722C32.003 3.32878 32.003 3.37033 32.003 3.41189C31.9532 3.57813 31.9532 3.74436 32.003 3.91059C32.0114 4.01033 32.0114 4.11839 32.0114 4.21813Z" fill="white"/>
<path d="M2.78685 31.9543C2.22997 31.7715 1.68971 31.5471 1.24919 31.1398C0.0938668 30.0759 -0.163796 28.3637 0.634126 27.0255C1.44867 25.6707 3.07776 25.0723 4.56556 25.6042C4.77335 25.679 4.87309 25.6208 5.01439 25.4879C6.93439 23.5512 8.8627 21.6312 10.7827 19.6946C10.9572 19.5201 11.0404 19.4785 11.2066 19.7112C11.5474 20.2099 11.9879 20.6255 12.4783 20.9746C12.6778 21.1076 12.6528 21.1741 12.5032 21.332C10.5666 23.2603 8.63828 25.2053 6.70166 27.1336C6.54374 27.2915 6.51049 27.4162 6.5853 27.6406C7.20867 29.4525 6.18633 31.3642 4.33283 31.8879C4.27465 31.9045 4.20815 31.8879 4.16659 31.9543C3.69283 31.9543 3.244 31.9543 2.78685 31.9543Z" fill="white"/>
<path d="M19.6351 31.9543C19.3442 31.8546 19.045 31.7798 18.7624 31.6634C16.2938 30.6327 15.7369 27.3579 17.74 25.5792C17.9312 25.413 17.9478 25.2883 17.873 25.0639C17.5572 24.1663 17.2663 23.2603 16.9587 22.3626C16.9005 22.1964 16.8839 22.105 17.1 22.08C17.8065 21.9886 18.4548 21.7309 19.1115 21.3818C19.3026 21.9553 19.4938 22.5122 19.685 23.0691C19.8346 23.5096 19.9842 23.9501 20.1255 24.3907C20.1753 24.5652 20.2585 24.6234 20.4413 24.64C22.2782 24.8229 23.5748 26.0613 23.8159 27.8483C24.0735 29.7351 22.7437 31.5553 20.8569 31.8878C20.7987 31.8961 20.7322 31.8712 20.6907 31.946C20.3416 31.9543 19.9925 31.9543 19.6351 31.9543Z" fill="white"/>
<path d="M32.0114 20.8831C31.9117 21.0244 31.92 21.1907 31.8701 21.3403C31.4296 22.6785 30.1745 23.5179 28.7366 23.4265C27.3901 23.3434 26.2431 22.2795 26.0104 20.8748C25.9771 20.6753 25.894 20.6088 25.7195 20.5507C24.3979 20.1101 23.0847 19.653 21.7631 19.2125C21.5137 19.1294 21.4057 19.0795 21.5719 18.7969C21.8712 18.2733 22.054 17.6998 22.1371 17.1013C22.1704 16.8852 22.2535 16.8769 22.4363 16.9434C23.7745 17.4088 25.1127 17.8577 26.4509 18.3148C26.6421 18.3813 26.7667 18.3813 26.933 18.2317C27.8057 17.4338 28.8363 17.1927 29.9584 17.5751C31.0805 17.9491 31.7454 18.7553 31.9699 19.9273C31.9782 19.9688 31.9782 20.0104 32.0197 20.027C32.0197 20.0686 32.0197 20.1101 32.0197 20.1517C31.9699 20.3595 31.9699 20.5673 32.0197 20.7751C32.0114 20.8 32.0114 20.8416 32.0114 20.8831Z" fill="white"/>
<path d="M32.0113 20.7586C31.9116 20.5508 31.9116 20.343 32.0113 20.1353C32.0113 20.343 32.0113 20.5508 32.0113 20.7586Z" fill="white"/>
<path d="M32.0115 3.91081C31.92 3.74458 31.9034 3.57834 32.0115 3.41211C32.0115 3.57834 32.0115 3.74458 32.0115 3.91081Z" fill="white"/>
<path d="M20.4907 16.0458C20.4823 18.4728 18.4875 20.451 16.0688 20.4344C13.6418 20.4178 11.672 18.423 11.6886 16.0043C11.7052 13.5939 13.6834 11.6323 16.0938 11.6323C18.5208 11.6406 20.5073 13.6271 20.4907 16.0458Z" fill="white"/>
<path d="M6.21106 5.63957C6.21106 5.69775 6.23599 5.83905 6.19443 5.9471C6.03651 6.33775 6.24431 6.53723 6.51859 6.75333C8.33054 8.19957 10.1259 9.67073 11.9295 11.1253C12.1207 11.2832 12.1373 11.358 11.9461 11.5242C11.4807 11.9232 11.0983 12.4053 10.7991 12.9455C10.6911 13.145 10.6246 13.1201 10.4666 12.9954C8.60482 11.4744 6.73469 9.96996 4.87288 8.44892C4.69833 8.30762 4.57366 8.25775 4.33262 8.35749C3.1856 8.84788 1.87236 8.55697 0.99963 7.64268C0.160149 6.76996 -0.0642664 5.4484 0.434435 4.33463C0.941448 3.21255 2.09677 2.49775 3.3269 2.54762C4.93937 2.61411 6.21106 3.94398 6.21106 5.63957Z" fill="white"/>
</g>
<defs>
<clipPath id="clip0_2033_4262">
<rect width="33" height="32" fill="white"/>
</clipPath>
</defs>
</svg>
