<svg width="46" height="46" viewBox="0 0 46 46" fill="none" xmlns="http://www.w3.org/2000/svg">
<g clip-path="url(#clip0_2007_4411)">
<path d="M0.973682 22.7249C0.972613 26.5898 1.98247 30.3636 3.90271 33.6898L0.790039 45.0547L12.4206 42.0051C15.6374 43.7564 19.2416 44.674 22.9043 44.6742H22.9139C35.0049 44.6742 44.8473 34.8354 44.8525 22.7422C44.8548 16.8822 42.5748 11.3718 38.4323 7.2261C34.2905 3.08075 28.7821 0.79662 22.913 0.793945C10.8205 0.793945 0.978853 10.6322 0.973861 22.7249" fill="url(#paint0_linear_2007_4411)"/>
<path d="M0.190775 22.7176C0.189527 26.7215 1.23558 30.6303 3.22428 34.0757L0 45.8479L12.0475 42.6891C15.367 44.4989 19.1044 45.4532 22.9075 45.4546H22.9173C35.4421 45.4546 45.6381 35.2619 45.6434 22.7358C45.6455 16.6652 43.2835 10.9567 38.993 6.66251C34.702 2.36882 28.9966 0.00249612 22.9173 0C10.3903 0 0.195767 10.1913 0.190775 22.7176ZM7.36535 33.4823L6.91551 32.7682C5.02452 29.7615 4.02643 26.2869 4.02785 22.719C4.03195 12.3075 12.5052 3.8369 22.9244 3.8369C27.9701 3.83904 32.7121 5.80598 36.2787 9.37473C39.8451 12.9438 41.8076 17.6882 41.8063 22.7343C41.8017 33.1459 33.3282 41.6175 22.9173 41.6175H22.9098C19.5199 41.6157 16.1952 40.7054 13.2958 38.985L12.6058 38.5758L5.45653 40.4502L7.36535 33.4821V33.4823Z" fill="url(#paint1_linear_2007_4411)"/>
<path d="M17.2368 13.22C16.8114 12.2745 16.3637 12.2554 15.9592 12.2388C15.6279 12.2245 15.2492 12.2256 14.8708 12.2256C14.4921 12.2256 13.8769 12.3681 13.3568 12.9359C12.8361 13.5043 11.3691 14.8779 11.3691 17.6716C11.3691 20.4655 13.404 23.1654 13.6877 23.5446C13.9717 23.9232 17.616 29.8397 23.3878 32.1158C28.1846 34.0073 29.1608 33.6311 30.2019 33.5363C31.2431 33.4418 33.5616 32.163 34.0347 30.8371C34.508 29.5113 34.508 28.3748 34.3661 28.1373C34.2242 27.9007 33.8455 27.7586 33.2776 27.4748C32.7096 27.1908 29.9178 25.817 29.3974 25.6275C28.8768 25.4381 28.4983 25.3436 28.1196 25.9122C27.7409 26.4799 26.6534 27.7586 26.322 28.1373C25.9909 28.5169 25.6594 28.5642 25.0918 28.2801C24.5235 27.9952 22.6948 27.3963 20.5251 25.462C18.837 23.9569 17.6974 22.0981 17.3661 21.5295C17.0348 20.9619 17.3306 20.6541 17.6153 20.3712C17.8705 20.1167 18.1834 19.7081 18.4676 19.3766C18.7507 19.045 18.8452 18.8084 19.0346 18.4297C19.2241 18.0507 19.1292 17.719 18.9875 17.435C18.8452 17.151 17.7417 14.3427 17.2368 13.22Z" fill="white"/>
</g>
<defs>
<linearGradient id="paint0_linear_2007_4411" x1="2203.91" y1="4426.87" x2="2203.91" y2="0.793945" gradientUnits="userSpaceOnUse">
<stop stop-color="#1FAF38"/>
<stop offset="1" stop-color="#60D669"/>
</linearGradient>
<linearGradient id="paint1_linear_2007_4411" x1="2282.17" y1="4584.79" x2="2282.17" y2="0" gradientUnits="userSpaceOnUse">
<stop stop-color="#F9F9F9"/>
<stop offset="1" stop-color="white"/>
</linearGradient>
<clipPath id="clip0_2007_4411">
<rect width="46" height="46" fill="white"/>
</clipPath>
</defs>
</svg>
