<svg width="18" height="14" viewBox="0 0 18 14" fill="none" xmlns="http://www.w3.org/2000/svg">
<g clip-path="url(#clip0_2033_4258)">
<path d="M17.3672 2.34818C17.2922 2.05494 17.1486 1.78371 16.9482 1.55689C16.7478 1.33007 16.4963 1.15415 16.2145 1.04364C13.4877 -0.00954248 9.14773 3.02586e-06 8.90909 3.02586e-06C8.67045 3.02586e-06 4.33045 -0.00954248 1.60364 1.04364C1.32186 1.15415 1.07039 1.33007 0.869984 1.55689C0.669578 1.78371 0.525975 2.05494 0.451023 2.34818C0.245 3.14205 0 4.59296 0 7C0 9.40705 0.245 10.858 0.451023 11.6518C0.525863 11.9452 0.669415 12.2166 0.869828 12.4436C1.07024 12.6705 1.32177 12.8466 1.60364 12.9572C4.21591 13.965 8.30454 14 8.85659 14H8.96159C9.51363 14 13.6047 13.965 16.2145 12.9572C16.4964 12.8466 16.7479 12.6705 16.9484 12.4436C17.1488 12.2166 17.2923 11.9452 17.3672 11.6518C17.5732 10.8564 17.8182 9.40705 17.8182 7C17.8182 4.59296 17.5732 3.14205 17.3672 2.34818ZM11.6311 7.26489L7.81295 9.81034C7.76502 9.84232 7.70931 9.86068 7.65176 9.86347C7.59421 9.86626 7.53698 9.85337 7.48619 9.82617C7.43539 9.79898 7.39293 9.7585 7.36334 9.70906C7.33375 9.65962 7.31814 9.60307 7.31818 9.54546V4.45455C7.31814 4.39693 7.33375 4.34038 7.36334 4.29094C7.39293 4.2415 7.43539 4.20103 7.48619 4.17383C7.53698 4.14664 7.59421 4.13374 7.65176 4.13653C7.70931 4.13932 7.76502 4.15768 7.81295 4.18966L11.6311 6.73512C11.6748 6.76416 11.7106 6.80354 11.7353 6.84975C11.7601 6.89596 11.773 6.94758 11.773 7C11.773 7.05243 11.7601 7.10404 11.7353 7.15025C11.7106 7.19646 11.6748 7.23584 11.6311 7.26489Z" fill="#0C0C0C"/>
</g>
<defs>
<clipPath id="clip0_2033_4258">
<rect width="18" height="14" fill="white"/>
</clipPath>
</defs>
</svg>
