<svg width="16" height="16" viewBox="0 0 16 16" fill="none" xmlns="http://www.w3.org/2000/svg">
<path fill-rule="evenodd" clip-rule="evenodd" d="M12.5812 15.7417H2.6063C1.22791 15.7417 0.101807 14.6156 0.101807 13.2372V3.26231C0.101807 1.88391 1.22791 0.757812 2.6063 0.757812H12.5812C13.9596 0.757812 15.0857 1.88391 15.0857 3.26231V13.2372C15.0857 14.6218 13.9658 15.7417 12.5812 15.7417ZM7.59689 12.0988C6.56924 12.0988 5.60313 11.6988 4.87702 10.9727C4.1509 10.2466 3.75092 9.2805 3.75092 8.25285C3.75092 7.22521 4.1509 6.2591 4.87702 5.53298C5.60313 4.80686 6.56924 4.40688 7.59689 4.40688C8.62453 4.40688 9.59064 4.80686 10.3168 5.53298C11.0429 6.2591 11.4429 7.22521 11.4429 8.25285C11.4429 9.2805 11.0429 10.2466 10.3168 10.9727C9.58449 11.6988 8.62453 12.0988 7.59689 12.0988ZM7.59689 5.2253C5.92927 5.2253 4.56934 6.57909 4.56934 8.25285C4.56934 9.92047 5.92312 11.2804 7.59689 11.2804C9.2645 11.2804 10.6244 9.92662 10.6244 8.25285C10.6183 6.58524 9.2645 5.2253 7.59689 5.2253ZM12.9309 3.54203C12.9309 3.94986 12.6003 4.28048 12.1924 4.28048C11.7846 4.28048 11.454 3.94986 11.454 3.54203C11.454 3.1342 11.7846 2.80359 12.1924 2.80359C12.6003 2.80359 12.9309 3.1342 12.9309 3.54203Z" fill="white"/>
</svg>
