<svg width="19" height="18" viewBox="0 0 19 18" fill="none" xmlns="http://www.w3.org/2000/svg">
<path d="M2.7036 4.50004H2.6775C2.40115 4.51731 2.12421 4.47734 1.86402 4.38264C1.60383 4.28793 1.366 4.14053 1.16541 3.94966C0.964821 3.75879 0.8058 3.52856 0.698303 3.27339C0.590805 3.01822 0.537147 2.7436 0.540688 2.46673C0.544229 2.18987 0.604892 1.91671 0.71888 1.66438C0.832868 1.41204 0.997724 1.18595 1.20313 1.00027C1.40853 0.814594 1.65006 0.673321 1.91258 0.5853C2.17511 0.497279 2.45298 0.464406 2.7288 0.48874C3.00515 0.469435 3.28252 0.507421 3.5435 0.600318C3.80449 0.693215 4.04348 0.839021 4.24548 1.0286C4.44748 1.21817 4.60815 1.44743 4.71741 1.702C4.82668 1.95657 4.88218 2.23096 4.88043 2.50799C4.87869 2.78501 4.81975 3.05868 4.7073 3.31186C4.59485 3.56504 4.43131 3.79226 4.22694 3.97928C4.02257 4.1663 3.78177 4.3091 3.51964 4.39871C3.25751 4.48832 2.97969 4.52282 2.7036 4.50004ZM0.916198 7.20004H4.5162V18H0.916198V7.20004ZM13.9662 7.20004C13.3596 7.20168 12.7612 7.34039 12.2157 7.60579C11.6703 7.8712 11.1918 8.25645 10.8162 8.73274V7.20004H7.2162V18H10.8162V13.05C10.8162 12.5726 11.0058 12.1148 11.3434 11.7772C11.681 11.4397 12.1388 11.25 12.6162 11.25C13.0936 11.25 13.5514 11.4397 13.889 11.7772C14.2266 12.1148 14.4162 12.5726 14.4162 13.05V18H18.0162V11.25C18.0162 10.1759 17.5895 9.14578 16.83 8.38626C16.0705 7.62674 15.0403 7.20004 13.9662 7.20004Z" fill="#CC9F5E"/>
</svg>
